<?xml version="1.0" encoding="UTF-8"?>
<svg xmlns="http://www.w3.org/2000/svg" xmlns:xlink="http://www.w3.org/1999/xlink" width="109pt" height="26pt" viewBox="0 0 109 26" version="1.1">
<g id="surface1">
<path style=" stroke:none;fill-rule:nonzero;fill:rgb(100%,100%,100%);fill-opacity:1;" d="M 0 23.8125 C 0 23.699219 0 23.582031 0 23.472656 C 0 16.390625 0 9.308594 0 2.226562 C 0 1.882812 0 1.882812 0.339844 1.882812 C 7.351562 1.882812 14.363281 1.882812 21.433594 1.882812 C 21.773438 1.882812 21.773438 1.882812 21.773438 2.226562 C 21.773438 9.308594 21.773438 16.390625 21.773438 23.472656 C 21.773438 23.582031 21.773438 23.753906 21.773438 23.871094 C 14.480469 23.8125 7.238281 23.8125 0 23.8125 Z M 6.503906 7.25 C 6.503906 7.308594 6.503906 7.308594 6.449219 7.367188 C 6.558594 7.539062 6.617188 7.707031 6.730469 7.9375 C 7.804688 9.9375 8.820312 11.9375 9.898438 13.933594 C 10.007812 14.164062 10.066406 14.390625 10.066406 14.621094 C 10.066406 15.929688 10.066406 17.246094 10.066406 18.558594 C 10.066406 18.789062 10.125 18.84375 10.351562 18.84375 C 10.6875 18.84375 11.027344 18.84375 11.367188 18.84375 C 11.59375 18.84375 11.648438 18.789062 11.648438 18.558594 C 11.648438 17.246094 11.648438 15.929688 11.648438 14.621094 C 11.648438 14.449219 11.707031 14.277344 11.761719 14.105469 C 12.160156 13.304688 12.613281 12.507812 13.007812 11.707031 C 13.683594 10.390625 14.363281 9.136719 15.042969 7.824219 C 15.097656 7.652344 15.15625 7.480469 15.269531 7.308594 C 14.761719 7.308594 14.363281 7.308594 13.96875 7.25 C 13.742188 7.25 13.628906 7.308594 13.515625 7.539062 C 12.722656 9.136719 11.933594 10.679688 11.140625 12.277344 C 11.085938 12.390625 10.972656 12.5625 10.914062 12.675781 C 10.804688 12.507812 10.746094 12.335938 10.6875 12.21875 C 9.953125 10.734375 9.21875 9.25 8.539062 7.707031 C 8.371094 7.367188 8.199219 7.195312 7.804688 7.25 C 7.691406 7.25 7.632812 7.25 7.523438 7.25 C 7.183594 7.25 6.84375 7.25 6.503906 7.25 Z M 6.503906 7.25 "/>
<path style="fill-rule:nonzero;fill:rgb(100%,100%,100%);fill-opacity:1;stroke-width:1;stroke-linecap:butt;stroke-linejoin:miter;stroke:rgb(100%,100%,100%);stroke-opacity:1;stroke-miterlimit:10;" d="M 192.202038 17.497621 C 192.001734 18.003807 191.80143 18.400548 191.601126 18.899893 C 191.297216 19.597609 191.297216 19.597609 190.599606 19.597609 C 189.301084 19.597609 188.396262 20.295325 187.698652 21.300857 C 187.498348 21.601833 187.498348 22.101178 187.498348 22.497919 C 187.498348 25.500833 187.401649 28.503748 187.401649 31.499822 C 187.401649 31.896563 187.304951 32.101773 186.800737 32.101773 C 186.400129 32.101773 185.999521 32.101773 185.598913 32.101773 C 185.198305 32.101773 185.101607 31.999168 185.101607 31.602428 C 185.101607 29.201464 185.101607 26.8005 185.101607 24.296931 C 185.101607 22.600524 185.101607 20.999882 184.998001 19.296634 C 184.998001 18.899893 184.901303 18.496313 184.797697 18.099572 C 184.797697 17.901202 184.901303 17.702832 185.101607 17.702832 C 185.502215 17.600226 185.999521 17.497621 186.400129 17.299251 C 186.697132 17.203486 186.800737 17.299251 186.904343 17.600226 C 187.001041 18.099572 187.09774 18.598918 187.194438 19.098264 C 187.194438 19.200869 187.194438 19.296634 187.304951 19.597609 C 187.595046 19.296634 187.802257 19.200869 187.995654 19.002499 C 188.603473 18.400548 189.301084 17.798597 190.198998 17.497621 C 190.79991 17.299251 191.504427 17.203486 192.202038 17.299251 C 192.202038 17.401856 192.202038 17.401856 192.202038 17.497621 Z M 192.202038 17.497621 " transform="matrix(0.565547,0,0,0.57106,0,0)"/>
<path style="fill-rule:nonzero;fill:rgb(100%,100%,100%);fill-opacity:1;stroke-width:1;stroke-linecap:butt;stroke-linejoin:miter;stroke:rgb(100%,100%,100%);stroke-opacity:1;stroke-miterlimit:10;" d="M 85.495268 19.296634 C 85.799178 19.098264 86.103087 18.899893 86.296484 18.701523 C 87.201306 18.003807 88.202825 17.497621 89.397742 17.299251 C 90.696265 17.100881 91.697785 17.702832 92.499001 18.598918 C 92.699305 18.797288 92.899609 19.098264 93.099913 19.501844 C 93.500521 19.200869 93.80443 19.002499 94.094526 18.797288 C 95.102953 18.003807 96.201171 17.497621 97.396088 17.299251 C 99.102125 16.998275 101.201864 18.400548 101.201864 20.397931 C 101.298562 24.201166 101.298562 27.894957 101.395261 31.698193 C 101.395261 31.999168 101.298562 32.197538 100.994653 32.101773 C 100.600952 32.101773 100.096738 32.101773 99.69613 32.101773 C 99.302429 32.101773 99.198824 31.999168 99.198824 31.602428 C 99.198824 28.996253 99.198824 26.39692 99.198824 23.797586 C 99.198824 23.004105 99.102125 22.101178 99.102125 21.300857 C 99.102125 19.597609 98.100605 19.002499 96.498173 19.296634 C 95.600259 19.399239 94.999347 19.99435 94.301737 20.500536 C 93.196611 21.396622 93.196611 21.396622 93.196611 22.798894 C 93.196611 25.801809 93.196611 28.804724 93.196611 31.698193 C 93.196611 32.101773 93.099913 32.197538 92.699305 32.197538 C 92.298697 32.197538 91.898089 32.197538 91.497481 32.197538 C 91.096873 32.197538 91.000174 32.101773 91.000174 31.698193 C 91.000174 28.900489 91.000174 26.198549 91.000174 23.400845 C 91.000174 22.497919 91.000174 21.697598 90.903476 20.801511 C 90.79987 19.700215 89.901956 19.200869 88.79683 19.296634 C 87.498308 19.501844 86.40009 20.295325 85.39857 21.205092 C 85.301871 21.300857 85.205173 21.601833 85.205173 21.902808 C 85.205173 25.097253 85.205173 28.401143 85.205173 31.602428 C 85.205173 32.197538 85.205173 32.197538 84.597354 32.197538 C 84.300351 32.197538 84.003349 32.197538 83.699439 32.197538 C 83.39553 32.197538 83.298831 32.101773 83.298831 31.800798 C 83.298831 30.501131 83.298831 29.098859 83.298831 27.799192 C 83.298831 25.302463 83.298831 22.798894 83.202133 20.397931 C 83.202133 19.700215 83.001829 19.002499 82.898223 18.304783 C 82.898223 18.003807 82.898223 17.901202 83.098527 17.901202 C 83.499135 17.798597 84.003349 17.702832 84.403957 17.600226 C 84.597354 17.497621 84.804565 17.600226 84.804565 17.901202 C 85.205173 18.195337 85.301871 18.701523 85.495268 19.296634 Z M 85.495268 19.296634 " transform="matrix(0.565547,0,0,0.57106,0,0)"/>
<path style="fill-rule:nonzero;fill:rgb(100%,100%,100%);fill-opacity:1;stroke-width:1;stroke-linecap:butt;stroke-linejoin:miter;stroke:rgb(100%,100%,100%);stroke-opacity:1;stroke-miterlimit:10;" d="M 108.502599 19.200869 C 108.903207 18.899893 109.200209 18.701523 109.497212 18.496313 C 111.099643 17.299251 112.895472 16.998275 114.801814 17.798597 C 116.197035 18.400548 117.101856 19.597609 117.599163 20.999882 C 118.600683 23.900191 118.497077 26.8005 117.101856 29.50244 C 116.397339 30.795266 115.402726 31.800798 113.800294 32.197538 C 112.101163 32.601119 110.498732 32.197538 109.200209 31.096242 C 108.999905 31.000477 108.903207 30.795266 108.599297 30.603736 C 108.502599 31.000477 108.398993 31.397217 108.302295 31.800798 C 108.198689 32.101773 108.101991 32.197538 107.798081 32.197538 C 107.300775 32.197538 106.699863 32.197538 106.202556 32.101773 C 106.699863 26.8005 106.40286 21.601833 106.40286 16.396324 C 106.40286 15.103498 106.299255 13.701226 106.299255 12.394718 C 106.299255 12.298953 106.299255 12.203189 106.299255 12.100583 C 106.202556 11.197657 106.098951 11.402867 106.996865 11.197657 C 107.100471 11.197657 107.300775 11.197657 107.397473 11.101892 C 108.302295 10.896681 108.398993 11.101892 108.502599 11.997978 C 108.599297 14.303177 108.599297 16.601535 108.695996 18.899893 C 108.502599 18.899893 108.502599 19.002499 108.502599 19.200869 Z M 108.502599 24.898882 C 108.502599 26.095944 108.502599 27.197241 108.502599 28.401143 C 108.502599 28.599513 108.599297 28.900489 108.695996 28.996253 C 109.89782 30.200155 111.403553 30.699501 113.102683 30.398526 C 114.401206 30.09755 115.098816 29.201464 115.402726 27.997562 C 115.803334 26.8005 115.900032 25.500833 115.900032 24.201166 C 115.900032 23.195635 115.803334 22.196943 115.402726 21.300857 C 115.002118 20.397931 114.304507 19.700215 113.199382 19.501844 C 111.500251 19.200869 109.994518 19.597609 108.799601 20.904117 C 108.599297 21.095647 108.398993 21.396622 108.502599 21.697598 C 108.502599 22.703129 108.502599 23.797586 108.502599 24.898882 Z M 108.502599 24.898882 " transform="matrix(0.565547,0,0,0.57106,0,0)"/>
<path style="fill-rule:nonzero;fill:rgb(100%,100%,100%);fill-opacity:1;stroke-width:1;stroke-linecap:butt;stroke-linejoin:miter;stroke:rgb(100%,100%,100%);stroke-opacity:1;stroke-miterlimit:10;" d="M 168.504004 24.803117 C 168.504004 23.195635 168.697401 21.697598 169.401918 20.397931 C 170.203134 18.899893 171.404958 17.702832 173.200787 17.401856 C 176.799352 16.799905 179.500002 18.496313 180.404824 22.101178 C 180.998829 24.399537 180.998829 26.8005 180.004216 28.996253 C 178.995789 31.301452 176.999656 32.498514 174.402611 32.402749 C 171.00435 32.300144 169.201614 30.001785 168.697401 27.299846 C 168.504004 26.499525 168.504004 25.603439 168.504004 24.803117 Z M 170.797139 24.399537 C 170.900745 25.398228 170.900745 26.39692 171.00435 27.402451 C 171.197747 29.399834 172.49627 30.501131 174.499309 30.603736 C 176.302045 30.699501 177.697266 29.70081 178.001176 27.894957 C 178.298178 26.198549 178.401784 24.502142 178.097874 22.798894 C 178.001176 22.101178 177.800872 21.300857 177.400264 20.596301 C 176.702653 19.399239 175.500829 18.797288 174.098702 18.899893 C 172.49627 19.002499 171.598355 19.597609 171.101049 21.095647 C 170.797139 22.196943 170.900745 23.29824 170.797139 24.399537 Z M 170.797139 24.399537 " transform="matrix(0.565547,0,0,0.57106,0,0)"/>
<path style="fill-rule:nonzero;fill:rgb(100%,100%,100%);fill-opacity:1;stroke-width:1;stroke-linecap:butt;stroke-linejoin:miter;stroke:rgb(100%,100%,100%);stroke-opacity:1;stroke-miterlimit:10;" d="M 78.899051 24.803117 C 78.899051 26.301155 78.802352 27.799192 78.097835 29.098859 C 76.896011 31.301452 75.100182 32.300144 72.599835 32.300144 C 69.498577 32.300144 67.094929 29.89918 66.797927 26.697895 C 66.597623 25.001488 66.500924 23.400845 66.998231 21.800203 C 67.599143 19.501844 69.001271 17.798597 71.301313 17.401856 C 74.796272 16.799905 77.296619 17.901202 78.602048 21.902808 C 78.698747 22.101178 78.698747 22.402154 78.802352 22.600524 C 78.802352 23.400845 78.899051 24.098561 78.899051 24.803117 Z M 76.599008 25.001488 C 76.398704 23.900191 76.398704 22.703129 76.094795 21.499227 C 75.701094 19.80282 74.298966 18.899893 72.599835 19.002499 C 70.900705 19.002499 69.595276 19.99435 69.201575 21.697598 C 68.697361 23.900191 68.800967 26.095944 69.401879 28.202773 C 69.595276 28.900489 69.899185 29.598204 70.603703 30.001785 C 72.302833 31.198847 75.50079 31.000477 76.302006 27.997562 C 76.495403 26.998871 76.495403 26.095944 76.599008 25.001488 Z M 76.599008 25.001488 " transform="matrix(0.565547,0,0,0.57106,0,0)"/>
<path style="fill-rule:nonzero;fill:rgb(100%,100%,100%);fill-opacity:1;stroke-width:1;stroke-linecap:butt;stroke-linejoin:miter;stroke:rgb(100%,100%,100%);stroke-opacity:1;stroke-miterlimit:10;" d="M 155.898667 31.096242 C 155.601664 31.499822 155.297755 31.800798 155.104358 32.197538 C 154.897147 32.498514 154.496539 32.498514 154.303142 32.300144 C 153.902534 31.896563 153.501926 31.499822 153.198016 31.000477 C 153.004619 30.699501 152.901014 30.699501 152.604011 30.904712 C 152.099798 31.301452 151.595584 31.698193 151.001579 31.999168 C 149.502753 32.703724 147.900321 32.703724 146.401495 32.101773 C 145.096065 31.602428 144.50206 30.501131 144.294849 29.098859 C 143.901148 26.39692 145.600279 24.597907 147.803623 23.900191 C 149.198844 23.400845 150.69767 23.29824 152.099798 23.29824 C 153.101318 23.29824 153.101318 23.29824 153.004619 22.299549 C 153.004619 21.902808 152.901014 21.601833 152.901014 21.205092 C 152.797408 19.501844 151.595584 19.002499 150.200364 19.098264 C 148.597932 19.200869 147.195804 19.80282 145.800583 20.698906 C 145.496673 20.295325 145.199671 19.898585 144.999367 19.501844 C 144.902668 19.399239 144.999367 19.098264 145.096065 19.002499 C 146.5051 18.195337 147.900321 17.497621 149.502753 17.401856 C 150.400668 17.299251 151.298582 17.299251 152.203403 17.497621 C 153.798928 17.798597 154.897147 19.296634 154.897147 20.904117 C 154.897147 23.400845 154.897147 25.801809 154.897147 28.298538 C 154.897147 28.804724 155.000752 29.201464 155.000752 29.70081 C 155.000752 30.302761 155.40136 30.699501 155.898667 31.096242 Z M 152.797408 26.198549 C 152.797408 25.801809 152.797408 25.398228 152.797408 25.001488 C 152.797408 24.803117 152.70071 24.597907 152.500406 24.597907 C 151.802795 24.597907 151.098278 24.597907 150.400668 24.597907 C 149.399148 24.700512 148.397628 24.898882 147.596412 25.500833 C 147.099105 25.904414 146.698497 26.301155 146.698497 26.903106 C 146.601799 27.498216 146.601799 27.997562 146.601799 28.599513 C 146.601799 29.598204 147.299409 30.398526 148.204231 30.603736 C 149.903361 31.000477 151.402187 30.302761 152.3968 28.996253 C 152.604011 28.804724 152.70071 28.401143 152.70071 28.100167 C 152.797408 27.600822 152.797408 26.903106 152.797408 26.198549 Z M 152.797408 26.198549 " transform="matrix(0.565547,0,0,0.57106,0,0)"/>
<path style="fill-rule:nonzero;fill:rgb(100%,100%,100%);fill-opacity:1;stroke-width:1;stroke-linecap:butt;stroke-linejoin:miter;stroke:rgb(100%,100%,100%);stroke-opacity:1;stroke-miterlimit:10;" d="M 63.703575 13.40025 C 63.302968 13.899596 62.999058 14.303177 62.702056 14.699917 C 62.004445 14.398942 61.299928 14.002201 60.59541 13.796991 C 57.397453 12.900904 54.70371 14.303177 53.598585 17.600226 C 53.301582 18.400548 53.197977 19.296634 53.101278 20.103795 C 53.00458 21.601833 52.900974 23.09987 53.101278 24.597907 C 53.301582 26.697895 54.199497 28.503748 56.098931 29.598204 C 57.901667 30.699501 59.904707 30.699501 61.797234 29.803415 C 62.004445 29.70081 62.101144 29.70081 62.301448 29.598204 C 63.102664 29.201464 63.102664 29.201464 63.59997 29.89918 C 63.800274 30.09755 64.000578 30.398526 64.200882 30.699501 C 63.199362 31.301452 62.301448 31.698193 61.203229 31.896563 C 59.801101 32.197538 58.398973 32.300144 57.003752 31.999168 C 53.999193 31.301452 52.203364 29.297229 51.194937 26.39692 C 50.600932 24.597907 50.504233 22.798894 50.600932 20.999882 C 50.69763 18.899893 51.305449 16.902511 52.500366 15.199263 C 53.70219 13.40025 55.401321 12.203189 57.597757 11.902213 C 59.600797 11.601238 61.500232 11.902213 63.302968 12.996669 C 63.399666 13.20188 63.496364 13.304485 63.703575 13.40025 Z M 63.703575 13.40025 " transform="matrix(0.565547,0,0,0.57106,0,0)"/>
<path style="fill-rule:nonzero;fill:rgb(100%,100%,100%);fill-opacity:1;stroke-width:1;stroke-linecap:butt;stroke-linejoin:miter;stroke:rgb(100%,100%,100%);stroke-opacity:1;stroke-miterlimit:10;" d="M 131.696419 19.501844 C 132.000329 19.296634 132.200633 19.098264 132.497635 18.899893 C 133.402457 18.195337 134.39707 17.600226 135.598893 17.401856 C 137.394722 16.998275 139.598066 18.195337 139.998674 19.80282 C 140.198978 20.500536 140.198978 21.300857 140.198978 22.101178 C 140.302584 25.302463 140.302584 28.401143 140.302584 31.602428 C 140.302584 31.999168 140.198978 32.197538 139.79837 32.101773 C 139.397762 32.101773 139.10076 32.101773 138.700152 32.101773 C 138.09924 32.101773 138.09924 32.101773 138.09924 31.499822 C 138.09924 28.702118 138.09924 25.904414 138.002541 23.004105 C 138.002541 22.299549 138.002541 21.499227 137.905843 20.801511 C 137.905843 19.99435 137.201325 19.296634 136.400109 19.200869 C 135.695592 19.098264 134.997981 19.098264 134.39707 19.399239 C 133.499155 19.898585 132.697939 20.397931 131.90363 20.999882 C 131.800025 21.095647 131.696419 21.396622 131.696419 21.499227 C 131.696419 24.803117 131.696419 28.100167 131.696419 31.397217 C 131.696419 31.999168 131.696419 31.999168 131.102414 31.999168 C 130.90211 31.999168 130.605108 31.999168 130.397897 31.999168 C 129.997289 31.999168 129.90059 31.896563 129.90059 31.499822 C 129.90059 28.900489 129.90059 26.301155 129.803892 23.599215 C 129.803892 22.101178 129.700286 20.596301 129.596681 19.098264 C 129.596681 18.701523 129.403284 18.400548 129.403284 18.099572 C 129.403284 18.003807 129.499982 17.798597 129.596681 17.702832 C 129.997289 17.600226 130.501502 17.497621 130.90211 17.401856 C 131.199113 17.299251 131.399417 17.401856 131.503022 17.798597 C 131.399417 18.304783 131.599721 18.899893 131.696419 19.501844 Z M 131.696419 19.501844 " transform="matrix(0.565547,0,0,0.57106,0,0)"/>
<path style="fill-rule:nonzero;fill:rgb(100%,100%,100%);fill-opacity:1;stroke-width:1;stroke-linecap:butt;stroke-linejoin:miter;stroke:rgb(100%,100%,100%);stroke-opacity:1;stroke-miterlimit:10;" d="M 162.59849 13.496015 C 162.59849 14.303177 162.501791 15.000893 162.501791 15.698609 C 162.501791 16.30056 162.405093 16.799905 162.405093 17.401856 C 162.405093 17.702832 162.59849 17.702832 162.798794 17.702832 C 163.703615 17.702832 164.504831 17.702832 165.402746 17.702832 C 165.596143 17.702832 165.699748 17.702832 165.996751 17.702832 C 165.803354 18.195337 165.596143 18.598918 165.402746 19.098264 C 165.402746 19.200869 165.202442 19.200869 165.002138 19.200869 C 164.200922 19.200869 163.496404 19.200869 162.695188 19.200869 C 162.405093 19.200869 162.197882 19.296634 162.197882 19.700215 C 162.197882 22.703129 162.29458 25.801809 162.29458 28.804724 C 162.29458 29.098859 162.29458 29.50244 162.405093 29.803415 C 162.501791 30.398526 162.999098 30.904712 163.800314 30.904712 C 164.29762 30.904712 164.698228 30.904712 165.202442 30.795266 C 165.499444 30.795266 165.596143 30.904712 165.699748 31.096242 C 165.900052 31.896563 165.803354 32.101773 165.098836 32.197538 C 164.104223 32.402749 163.095796 32.498514 162.101183 32.197538 C 160.996058 31.896563 160.402053 31.096242 160.298447 30.001785 C 160.201749 26.60213 160.201749 23.29824 160.201749 19.898585 C 160.201749 19.200869 160.201749 19.200869 159.497231 19.200869 C 159.400533 19.200869 159.200229 19.200869 159.10353 19.200869 C 158.799621 19.200869 158.302315 19.200869 158.302315 19.098264 C 158.198709 18.701523 158.198709 18.304783 158.302315 17.798597 C 158.302315 17.702832 158.502619 17.702832 158.599317 17.702832 C 158.999925 17.702832 159.296927 17.702832 159.697535 17.702832 C 160.001445 17.702832 160.098143 17.600226 160.201749 17.299251 C 160.298447 16.396324 160.402053 15.404473 160.402053 14.501547 C 160.402053 14.097966 160.59545 14.002201 160.899359 13.899596 C 161.500271 13.701226 162.004485 13.605461 162.59849 13.496015 Z M 162.59849 13.496015 " transform="matrix(0.565547,0,0,0.57106,0,0)"/>
<path style="fill-rule:nonzero;fill:rgb(100%,100%,100%);fill-opacity:1;stroke-width:1;stroke-linecap:butt;stroke-linejoin:miter;stroke:rgb(100%,100%,100%);stroke-opacity:1;stroke-miterlimit:10;" d="M 124.49929 17.299251 C 124.49929 17.497621 124.49929 17.600226 124.49929 17.702832 C 124.49929 22.299549 124.49929 26.903106 124.49929 31.499822 C 124.49929 31.896563 124.402591 32.101773 124.001983 31.999168 C 123.601375 31.999168 123.200767 31.999168 122.800159 31.999168 C 122.503157 31.999168 122.399551 31.896563 122.399551 31.602428 C 122.399551 29.50244 122.399551 27.402451 122.399551 25.302463 C 122.399551 22.9015 122.399551 20.596301 122.399551 18.195337 C 122.399551 17.798597 122.503157 17.600226 123.000463 17.497621 C 123.401071 17.600226 123.898378 17.401856 124.49929 17.299251 Z M 124.49929 17.299251 " transform="matrix(0.565547,0,0,0.57106,0,0)"/>
<path style="fill-rule:nonzero;fill:rgb(100%,100%,100%);fill-opacity:1;stroke-width:1;stroke-linecap:butt;stroke-linejoin:miter;stroke:rgb(100%,100%,100%);stroke-opacity:1;stroke-miterlimit:10;" d="M 123.401071 11.402867 C 124.298986 11.402867 125.100202 12.100583 125.100202 12.996669 C 125.100202 13.899596 124.298986 14.699917 123.49777 14.699917 C 122.599855 14.699917 121.798639 14.002201 121.798639 13.099275 C 121.798639 12.203189 122.503157 11.402867 123.401071 11.402867 Z M 123.401071 11.402867 " transform="matrix(0.565547,0,0,0.57106,0,0)"/>
</g>
</svg>
