<?xml version="1.0" encoding="utf-8"?>
<!-- Generator: Adobe Illustrator 24.0.2, SVG Export Plug-In . SVG Version: 6.00 Build 0)  -->
<svg version="1.1" id="Layer_1" xmlns="http://www.w3.org/2000/svg" xmlns:xlink="http://www.w3.org/1999/xlink" x="0px" y="0px"
	 viewBox="0 0 193 45" style="enable-background:new 0 0 193 45;" xml:space="preserve">
<style type="text/css">
	.st0{fill:#FFFFFF;}
</style>
<g id="VPWjnZ.tif">
	<g>
		<path class="st0" d="M27.2,44.5c-1.4-0.3-2.8-0.5-4.2-0.8C9.4,40.7,0,29.1,0,15.2c0-4.7,0-9.5,0-14.3c2.3-0.2,4.3,0.5,6.3,1.3
			c0.6,0.2,1.4,0.2,2,0c4.2-1.8,8.3-1.9,12.4,0c0.9,0.4,1.5,0.4,2.4,0C25,1.4,27,1,29.1,0.5c0.1,0.8,0.1,1.2,0.1,1.6
			c0,13.8,0,27.6,0,41.4c0,0.4,0,0.8,0,1.1C28.5,44.5,27.9,44.5,27.2,44.5z M14.6,11c-0.2-0.4-0.3-0.7-0.4-1
			c-1.4-3.2-4.7-4.7-7.9-3.6c-3.1,1-4.8,4.3-4,7.5c0.9,3.2,4,5.5,7.3,4.4c2.3-0.7,3.2,0.2,4.4,1.6c0.2,0.2,0.4,0.4,0.8,0.7
			c0.5-0.6,1-1.1,1.5-1.7c0.8-1,1.5-1.2,2.8-0.7c2.6,1,5.7-0.1,7.2-2.5c1.6-2.4,1.3-5.6-0.7-7.7c-2-2.1-5-2.6-7.5-1.3
			C16.2,7.6,15.2,9.1,14.6,11z"/>
		<path class="st0" d="M42,8.2c1.8,0,3.6,0,5.5,0c0,3.1,0,6.3,0,9.5c3.1,0,6.1,0,9.3,0c0-3.2,0-6.3,0-9.5c2,0,3.7,0,5.6,0
			c0,8.3,0,16.5,0,24.8c-1.8,0-3.6,0-5.6,0c0-3.4,0-6.7,0-10.2c-3.1,0-6.1,0-9.2,0c0,3.4,0,6.8,0,10.2c-2,0-3.7,0-5.6,0
			C42,24.7,42,16.5,42,8.2z"/>
		<path class="st0" d="M83.6,24c0,5.7-4,9.6-9.7,9.5c-5.7,0-9.4-3.9-9.4-9.6c0-5.8,3.9-9.4,9.9-9.4C80,14.6,83.6,18.4,83.6,24z
			 M77.8,24.2c-0.4-1.3-0.5-2.7-1.1-3.8c-1.1-2.2-3.9-2.3-5.3-0.3c-1.4,1.9-1.4,5.9-0.1,7.8c1.4,2.1,4.2,2.1,5.4-0.2
			C77.3,26.7,77.5,25.4,77.8,24.2z"/>
		<path class="st0" d="M146.3,33c-0.1-0.7-0.3-1.4-0.3-1.7c-1.6,0.7-3.1,1.7-4.7,2.1c-3.9,0.8-6.8-1.5-7.4-5.7
			c-0.1-0.7-0.1-1.4-0.1-2.2c0-3.4,0-6.9,0-10.4c1.9,0,3.6,0,5.6,0c0,0.5,0.1,1,0.1,1.5c0,3.1,0,6.1,0.1,9.2
			c0.1,2.1,1.1,3.2,2.8,3.1c1.8,0,2.9-1.3,3-3.4c0-3.4,0-6.9,0-10.4c1.9,0,3.7,0,5.6,0c0,5.9,0,11.9,0,17.9
			C149.5,33,147.9,33,146.3,33z"/>
		<path class="st0" d="M104.5,24c-0.1,5.8-4.1,9.7-9.8,9.6c-5.7-0.1-9.4-3.9-9.3-9.7c0.1-5.8,4-9.4,10.1-9.3
			C100.9,14.7,104.6,18.6,104.5,24z M91.1,24c0.3,1.3,0.6,2.5,1,3.6c0.5,1.2,1.6,1.8,2.9,1.8c1.3,0,2.2-0.7,2.7-1.8
			c1.1-2.4,1.1-4.8,0-7.2c-0.5-1.1-1.5-1.8-2.8-1.7c-1.3,0-2.3,0.6-2.8,1.8C91.7,21.5,91.4,22.8,91.1,24z"/>
		<path class="st0" d="M191.2,28.5c0.3,1.3,0.5,2.5,0.7,3.6c-3.4,2.1-10.3,1.7-13.2-0.7c-2.9-2.3-4-7.1-2.4-11.2
			c1.4-3.8,4.8-5.9,8.9-5.8c5.7,0.2,7.9,4.8,7.8,9.6c0,0.5-0.1,1-0.2,1.7c-3.8,0-7.7,0-11.6,0c0.1,1.8,1.2,2.8,2.6,3
			c2,0.3,4,0.1,6,0.1C190.2,28.8,190.7,28.6,191.2,28.5z M187.6,21.8c-0.1-2.3-1.2-3.5-3.1-3.5c-1.9,0-3.2,1.5-3.2,3.5
			C183.4,21.8,185.4,21.8,187.6,21.8z"/>
		<path class="st0" d="M131,15.7c-0.3,1.3-0.6,2.5-0.9,3.6c-1.4-0.3-2.8-0.6-4.1-0.7c-0.7,0-1.7,0.5-1.9,1c-0.5,0.9,0.5,1.4,1.3,1.7
			c0.9,0.4,1.8,0.7,2.7,1c2.7,1.2,3.9,3,3.7,5.5c-0.1,2.5-1.7,4.3-4.6,5.1c-3.1,0.8-6.2,0.5-9.2-0.8c0.3-1.3,0.7-2.6,1-3.9
			c1.5,0.4,2.9,0.8,4.3,1c0.5,0.1,1.2,0.1,1.7-0.1c0.5-0.2,1.3-0.7,1.3-1.1c0-0.5-0.4-1.3-0.9-1.5c-1.4-0.8-2.9-1.2-4.3-2
			c-2.4-1.4-3.2-4-2-6.5c0.8-1.7,2.2-2.7,4-3.3C125.3,14.2,128.5,14.5,131,15.7z"/>
		<path class="st0" d="M173.9,28.8c0,0.6,0,1.1,0,1.5c0,3,0,3-3,3.2c-3.8,0.3-6.3-1.6-6.4-5.5c-0.2-4.5-0.2-9-0.1-13.5
			c0.1-3,2.5-5,5.5-5c0,1.7,0,3.5,0,5.4c1.4,0,2.6,0,4,0c0,1.4,0,2.7,0,4.2c-1.2,0-2.5,0-3.9,0c0,2.7-0.1,5.2,0,7.7
			c0.1,1.4,0.8,2,2.3,2C172.8,28.9,173.2,28.8,173.9,28.8z"/>
		<path class="st0" d="M112.1,9.6c0,1.8,0,3.5,0,5.4c1.4,0,2.6,0,4,0c0,1.4,0,2.8,0,4.2c-1.3,0-2.5,0-3.8,0c0,2.8-0.1,5.5,0,8.1
			c0,1,0.8,1.6,1.9,1.6c0.5,0,1.1,0,1.8,0c0,1.2,0,2.4,0,3.6c0,0.3-0.4,0.7-0.7,0.7c-1.9,0.4-3.8,0.6-5.7-0.2
			c-1.8-0.7-2.8-2.2-2.9-4c-0.2-4.9-0.3-9.8-0.2-14.6C106.6,11.5,109,9.6,112.1,9.6z"/>
		<path class="st0" d="M155,15c1.8,0,3.6,0,5.5,0c0,6,0,11.9,0,17.9c-1.8,0-3.6,0-5.5,0C155,27,155,21.1,155,15z"/>
		<path class="st0" d="M157.7,12.7c-1.9,0-3.2-1.2-3.2-3c0-1.8,1.3-3.1,3.2-3.1c1.9,0,3.3,1.3,3.2,3.1
			C160.9,11.4,159.6,12.7,157.7,12.7z"/>
		<path class="st0" d="M9.2,8.3c-1,1.1-1.3,2.2-0.3,3.3c0.8,1,1.8,0.9,3.3-0.1c0.5,1.7-0.2,3.3-1.7,4.2c-1.6,1-3.5,0.8-4.9-0.4
			c-1.4-1.2-1.8-3.2-1-4.8C5.5,8.8,7.1,8,9.2,8.3z"/>
		<path class="st0" d="M16.9,11.5c1.2,0.8,2.4,1.3,3.5,0.1c0.9-1,0.6-2.1-0.2-3.1c1.4-0.6,3-0.1,4.1,1.4c1.1,1.4,1.1,3.4,0,4.8
			c-1.2,1.6-3.1,2.1-4.9,1.4C17.5,15.4,16.6,13.7,16.9,11.5z"/>
	</g>
</g>
</svg>
