<?xml version="1.0" encoding="UTF-8"?>
<svg xmlns="http://www.w3.org/2000/svg" xmlns:xlink="http://www.w3.org/1999/xlink" width="148px" height="35px" viewBox="0 0 150 35" version="1.1">
<g id="surface1">
<path style=" stroke:none;fill-rule:nonzero;fill:rgb(100%,100%,100%);fill-opacity:1;" d="M 21.140625 34.609375 C 20.050781 34.378906 18.964844 34.222656 17.875 33.988281 C 7.304688 31.65625 0 22.632812 0 11.820312 C 0 8.167969 0 4.433594 0 0.699219 C 1.789062 0.542969 3.34375 1.089844 4.894531 1.710938 C 5.363281 1.867188 5.984375 1.867188 6.449219 1.710938 C 9.714844 0.3125 12.902344 0.234375 16.089844 1.710938 C 16.789062 2.023438 17.253906 2.023438 17.953125 1.710938 C 19.429688 1.089844 20.984375 0.777344 22.617188 0.390625 C 22.695312 1.011719 22.695312 1.320312 22.695312 1.632812 C 22.695312 12.367188 22.695312 23.101562 22.695312 33.832031 C 22.695312 34.144531 22.695312 34.457031 22.695312 34.6875 C 22.148438 34.609375 21.683594 34.609375 21.140625 34.609375 Z M 11.347656 8.554688 C 11.191406 8.246094 11.113281 8.011719 11.035156 7.777344 C 9.949219 5.289062 7.382812 4.121094 4.894531 4.976562 C 2.488281 5.753906 1.164062 8.320312 1.789062 10.8125 C 2.488281 13.300781 4.894531 15.089844 7.460938 14.234375 C 9.25 13.6875 9.949219 14.390625 10.878906 15.476562 C 11.035156 15.632812 11.191406 15.789062 11.503906 16.023438 C 11.890625 15.554688 12.28125 15.167969 12.667969 14.699219 C 13.289062 13.921875 13.835938 13.765625 14.84375 14.15625 C 16.867188 14.933594 19.273438 14.078125 20.441406 12.210938 C 21.683594 10.34375 21.449219 7.855469 19.894531 6.222656 C 18.34375 4.589844 16.011719 4.199219 14.066406 5.210938 C 12.589844 5.910156 11.8125 7.078125 11.347656 8.554688 Z M 11.347656 8.554688 "/>
<path style=" stroke:none;fill-rule:nonzero;fill:rgb(100%,100%,100%);fill-opacity:1;" d="M 32.640625 6.378906 C 34.042969 6.378906 35.441406 6.378906 36.917969 6.378906 C 36.917969 8.789062 36.917969 11.277344 36.917969 13.765625 C 39.328125 13.765625 41.65625 13.765625 44.144531 13.765625 C 44.144531 11.277344 44.144531 8.867188 44.144531 6.378906 C 45.699219 6.378906 47.019531 6.378906 48.496094 6.378906 C 48.496094 12.832031 48.496094 19.210938 48.496094 25.667969 C 47.097656 25.667969 45.699219 25.667969 44.144531 25.667969 C 44.144531 23.023438 44.144531 20.457031 44.144531 17.734375 C 41.734375 17.734375 39.402344 17.734375 36.996094 17.734375 C 36.996094 20.378906 36.996094 23.023438 36.996094 25.667969 C 35.441406 25.667969 34.121094 25.667969 32.640625 25.667969 C 32.640625 19.210938 32.640625 12.832031 32.640625 6.378906 Z M 32.640625 6.378906 "/>
<path style=" stroke:none;fill-rule:nonzero;fill:rgb(100%,100%,100%);fill-opacity:1;" d="M 64.972656 18.667969 C 64.972656 23.101562 61.867188 26.132812 57.433594 26.054688 C 53.003906 26.054688 50.128906 23.023438 50.128906 18.589844 C 50.128906 14.078125 53.160156 11.277344 57.824219 11.277344 C 62.175781 11.355469 64.972656 14.3125 64.972656 18.667969 Z M 60.464844 18.820312 C 60.15625 17.8125 60.078125 16.722656 59.613281 15.867188 C 58.757812 14.15625 56.582031 14.078125 55.492188 15.632812 C 54.402344 17.109375 54.402344 20.222656 55.414062 21.699219 C 56.503906 23.332031 58.679688 23.332031 59.613281 21.542969 C 60.078125 20.765625 60.234375 19.753906 60.464844 18.820312 Z M 60.464844 18.820312 "/>
<path style=" stroke:none;fill-rule:nonzero;fill:rgb(100%,100%,100%);fill-opacity:1;" d="M 113.703125 25.667969 C 113.625 25.121094 113.472656 24.578125 113.472656 24.34375 C 112.226562 24.890625 111.0625 25.667969 109.820312 25.976562 C 106.789062 26.601562 104.535156 24.8125 104.066406 21.542969 C 103.988281 21 103.988281 20.457031 103.988281 19.832031 C 103.988281 17.1875 103.988281 14.464844 103.988281 11.746094 C 105.464844 11.746094 106.789062 11.746094 108.34375 11.746094 C 108.34375 12.132812 108.417969 12.523438 108.417969 12.910156 C 108.417969 15.320312 108.417969 17.65625 108.496094 20.066406 C 108.574219 21.699219 109.351562 22.554688 110.671875 22.476562 C 112.074219 22.476562 112.925781 21.464844 113.003906 19.832031 C 113.003906 17.1875 113.003906 14.464844 113.003906 11.746094 C 114.480469 11.746094 115.878906 11.746094 117.359375 11.746094 C 117.359375 16.332031 117.359375 21 117.359375 25.667969 C 116.191406 25.667969 114.949219 25.667969 113.703125 25.667969 Z M 113.703125 25.667969 "/>
<path style=" stroke:none;fill-rule:nonzero;fill:rgb(100%,100%,100%);fill-opacity:1;" d="M 81.21875 18.667969 C 81.140625 23.179688 78.03125 26.210938 73.601562 26.132812 C 69.171875 26.054688 66.296875 23.101562 66.375 18.589844 C 66.449219 14.078125 69.480469 11.277344 74.222656 11.355469 C 78.417969 11.433594 81.296875 14.464844 81.21875 18.667969 Z M 70.804688 18.667969 C 71.035156 19.679688 71.269531 20.609375 71.582031 21.464844 C 71.96875 22.398438 72.824219 22.867188 73.835938 22.867188 C 74.84375 22.867188 75.542969 22.320312 75.933594 21.464844 C 76.789062 19.601562 76.789062 17.734375 75.933594 15.867188 C 75.542969 15.011719 74.765625 14.464844 73.757812 14.542969 C 72.746094 14.542969 71.96875 15.011719 71.582031 15.945312 C 71.269531 16.722656 71.035156 17.734375 70.804688 18.667969 Z M 70.804688 18.667969 "/>
<path style=" stroke:none;fill-rule:nonzero;fill:rgb(100%,100%,100%);fill-opacity:1;" d="M 148.601562 22.167969 C 148.835938 23.179688 148.988281 24.109375 149.144531 24.964844 C 146.503906 26.601562 141.140625 26.289062 138.886719 24.421875 C 136.632812 22.632812 135.777344 18.898438 137.019531 15.710938 C 138.109375 12.753906 140.75 11.121094 143.9375 11.199219 C 148.367188 11.355469 150.078125 14.933594 150 18.667969 C 150 19.054688 149.921875 19.445312 149.84375 19.988281 C 146.890625 19.988281 143.859375 19.988281 140.828125 19.988281 C 140.90625 21.390625 141.761719 22.167969 142.851562 22.320312 C 144.402344 22.554688 145.957031 22.398438 147.511719 22.398438 C 147.824219 22.398438 148.210938 22.246094 148.601562 22.167969 Z M 145.804688 16.957031 C 145.726562 15.167969 144.871094 14.234375 143.394531 14.234375 C 141.917969 14.234375 140.90625 15.398438 140.90625 16.957031 C 142.539062 16.957031 144.09375 16.957031 145.804688 16.957031 Z M 145.804688 16.957031 "/>
<path style=" stroke:none;fill-rule:nonzero;fill:rgb(100%,100%,100%);fill-opacity:1;" d="M 101.8125 12.210938 C 101.582031 13.222656 101.347656 14.15625 101.113281 15.011719 C 100.027344 14.777344 98.9375 14.542969 97.925781 14.464844 C 97.382812 14.464844 96.605469 14.855469 96.449219 15.246094 C 96.0625 15.945312 96.839844 16.332031 97.460938 16.566406 C 98.160156 16.878906 98.859375 17.109375 99.558594 17.34375 C 101.65625 18.277344 102.589844 19.679688 102.433594 21.621094 C 102.359375 23.566406 101.113281 24.964844 98.859375 25.589844 C 96.449219 26.210938 94.042969 25.976562 91.710938 24.964844 C 91.941406 23.957031 92.253906 22.945312 92.488281 21.933594 C 93.652344 22.246094 94.742188 22.554688 95.828125 22.710938 C 96.21875 22.789062 96.761719 22.789062 97.148438 22.632812 C 97.539062 22.476562 98.160156 22.089844 98.160156 21.777344 C 98.160156 21.390625 97.851562 20.765625 97.460938 20.609375 C 96.375 19.988281 95.207031 19.679688 94.121094 19.054688 C 92.253906 17.964844 91.632812 15.945312 92.566406 14 C 93.1875 12.679688 94.273438 11.898438 95.671875 11.433594 C 97.382812 11.042969 99.871094 11.277344 101.8125 12.210938 Z M 101.8125 12.210938 "/>
<path style=" stroke:none;fill-rule:nonzero;fill:rgb(100%,100%,100%);fill-opacity:1;" d="M 135.15625 22.398438 C 135.15625 22.867188 135.15625 23.253906 135.15625 23.566406 C 135.15625 25.898438 135.15625 25.898438 132.824219 26.054688 C 129.871094 26.289062 127.925781 24.8125 127.851562 21.777344 C 127.695312 18.277344 127.695312 14.777344 127.773438 11.277344 C 127.851562 8.945312 129.714844 7.390625 132.046875 7.390625 C 132.046875 8.710938 132.046875 10.109375 132.046875 11.589844 C 133.132812 11.589844 134.066406 11.589844 135.15625 11.589844 C 135.15625 12.679688 135.15625 13.6875 135.15625 14.855469 C 134.222656 14.855469 133.210938 14.855469 132.125 14.855469 C 132.125 16.957031 132.046875 18.898438 132.125 20.84375 C 132.203125 21.933594 132.746094 22.398438 133.910156 22.398438 C 134.300781 22.476562 134.613281 22.398438 135.15625 22.398438 Z M 135.15625 22.398438 "/>
<path style=" stroke:none;fill-rule:nonzero;fill:rgb(100%,100%,100%);fill-opacity:1;" d="M 87.125 7.464844 C 87.125 8.867188 87.125 10.1875 87.125 11.667969 C 88.210938 11.667969 89.144531 11.667969 90.234375 11.667969 C 90.234375 12.753906 90.234375 13.84375 90.234375 14.933594 C 89.222656 14.933594 88.289062 14.933594 87.28125 14.933594 C 87.28125 17.109375 87.203125 19.210938 87.28125 21.234375 C 87.28125 22.011719 87.902344 22.476562 88.757812 22.476562 C 89.144531 22.476562 89.613281 22.476562 90.15625 22.476562 C 90.15625 23.410156 90.15625 24.34375 90.15625 25.277344 C 90.15625 25.511719 89.84375 25.820312 89.613281 25.820312 C 88.132812 26.132812 86.65625 26.289062 85.179688 25.667969 C 83.78125 25.121094 83.003906 23.957031 82.925781 22.554688 C 82.773438 18.746094 82.695312 14.933594 82.773438 11.199219 C 82.851562 8.945312 84.714844 7.464844 87.125 7.464844 Z M 87.125 7.464844 "/>
<path style=" stroke:none;fill-rule:nonzero;fill:rgb(100%,100%,100%);fill-opacity:1;" d="M 120.464844 11.667969 C 121.867188 11.667969 123.265625 11.667969 124.742188 11.667969 C 124.742188 16.332031 124.742188 20.921875 124.742188 25.589844 C 123.34375 25.589844 121.941406 25.589844 120.464844 25.589844 C 120.464844 21 120.464844 16.410156 120.464844 11.667969 Z M 120.464844 11.667969 "/>
<path style=" stroke:none;fill-rule:nonzero;fill:rgb(100%,100%,100%);fill-opacity:1;" d="M 122.566406 9.878906 C 121.089844 9.878906 120.078125 8.945312 120.078125 7.542969 C 120.078125 6.144531 121.089844 5.132812 122.566406 5.132812 C 124.042969 5.132812 125.128906 6.144531 125.050781 7.542969 C 125.050781 8.867188 124.042969 9.878906 122.566406 9.878906 Z M 122.566406 9.878906 "/>
<path style=" stroke:none;fill-rule:nonzero;fill:rgb(100%,100%,100%);fill-opacity:1;" d="M 7.148438 6.457031 C 6.375 7.3125 6.140625 8.167969 6.917969 9.023438 C 7.539062 9.800781 8.316406 9.722656 9.480469 8.945312 C 9.871094 10.265625 9.328125 11.511719 8.160156 12.210938 C 6.917969 12.988281 5.441406 12.832031 4.351562 11.898438 C 3.265625 10.964844 2.953125 9.410156 3.574219 8.167969 C 4.273438 6.84375 5.519531 6.222656 7.148438 6.457031 Z M 7.148438 6.457031 "/>
<path style=" stroke:none;fill-rule:nonzero;fill:rgb(100%,100%,100%);fill-opacity:1;" d="M 13.132812 8.945312 C 14.066406 9.566406 15 9.957031 15.855469 9.023438 C 16.554688 8.246094 16.320312 7.390625 15.699219 6.609375 C 16.789062 6.144531 18.03125 6.535156 18.886719 7.699219 C 19.742188 8.789062 19.742188 10.34375 18.886719 11.433594 C 17.953125 12.679688 16.476562 13.066406 15.078125 12.523438 C 13.601562 11.976562 12.902344 10.65625 13.132812 8.945312 Z M 13.132812 8.945312 "/>
</g>
</svg>
