<?xml version="1.0" encoding="UTF-8"?>
<svg xmlns="http://www.w3.org/2000/svg" xmlns:xlink="http://www.w3.org/1999/xlink" width="109pt" height="26pt" viewBox="0 0 109 26" version="1.1">
<g id="surface1">
<path style=" stroke:none;fill-rule:nonzero;fill:rgb(100%,100%,100%);fill-opacity:1;" d="M 17.984375 21.871094 C 11.988281 21.871094 6.050781 21.871094 0 21.871094 C 0 15.875 0 9.878906 0 3.828125 C 5.996094 3.828125 11.933594 3.828125 17.984375 3.828125 C 17.984375 9.824219 17.984375 15.820312 17.984375 21.871094 Z M 7.691406 8.964844 C 7.691406 11.589844 7.691406 14.164062 7.691406 16.730469 C 8.257812 16.730469 8.820312 16.730469 9.445312 16.730469 C 9.445312 15.761719 9.445312 14.792969 9.445312 13.761719 C 10.40625 13.761719 11.253906 13.761719 12.160156 13.761719 C 12.160156 14.792969 12.160156 15.761719 12.160156 16.730469 C 12.78125 16.730469 13.347656 16.730469 13.910156 16.730469 C 13.910156 14.164062 13.910156 11.589844 13.910156 8.964844 C 13.347656 8.964844 12.78125 8.964844 12.160156 8.964844 C 12.160156 9.9375 12.160156 10.90625 12.160156 11.878906 C 11.253906 11.878906 10.351562 11.878906 9.445312 11.878906 C 9.445312 10.851562 9.445312 9.9375 9.445312 8.90625 C 8.820312 8.964844 8.257812 8.964844 7.691406 8.964844 Z M 5.769531 8.964844 C 5.203125 8.964844 4.636719 8.964844 4.074219 8.964844 C 4.074219 11.535156 4.074219 14.105469 4.074219 16.675781 C 4.691406 16.675781 5.203125 16.675781 5.769531 16.675781 C 5.769531 14.105469 5.769531 11.535156 5.769531 8.964844 Z M 5.769531 8.964844 "/>
<path style=" stroke:none;fill-rule:nonzero;fill:rgb(100%,100%,100%);fill-opacity:1;" d="M 32.855469 16.847656 C 32.347656 16.847656 31.785156 16.847656 31.21875 16.847656 C 31.21875 14.164062 31.21875 11.535156 31.21875 8.796875 C 31.785156 8.796875 32.347656 8.734375 32.914062 8.796875 C 33.082031 8.796875 33.253906 9.023438 33.308594 9.195312 C 34.105469 10.734375 34.894531 12.277344 35.6875 13.820312 C 35.742188 13.933594 35.800781 14.046875 35.855469 14.164062 C 35.855469 12.335938 35.855469 10.5625 35.855469 8.796875 C 36.363281 8.796875 36.929688 8.796875 37.496094 8.796875 C 37.496094 11.480469 37.496094 14.105469 37.496094 16.847656 C 36.929688 16.847656 36.421875 16.902344 35.910156 16.847656 C 35.742188 16.847656 35.515625 16.617188 35.460938 16.449219 C 34.667969 14.902344 33.878906 13.363281 33.140625 11.878906 C 33.082031 11.761719 33.027344 11.648438 32.914062 11.480469 C 32.855469 13.304688 32.855469 15.074219 32.855469 16.847656 Z M 32.855469 16.847656 "/>
<path style=" stroke:none;fill-rule:nonzero;fill:rgb(100%,100%,100%);fill-opacity:1;" d="M 100.949219 13.703125 C 101.515625 14.734375 102.082031 15.761719 102.761719 16.902344 C 102.082031 16.902344 101.457031 16.902344 100.894531 16.902344 C 100.777344 16.902344 100.613281 16.730469 100.496094 16.558594 C 100.160156 15.929688 99.761719 15.304688 99.480469 14.675781 C 99.253906 14.105469 98.859375 13.875 98.179688 14.105469 C 98.179688 15.019531 98.179688 15.929688 98.179688 16.902344 C 97.554688 16.902344 96.992188 16.902344 96.367188 16.902344 C 96.367188 14.21875 96.367188 11.589844 96.367188 8.796875 C 97.78125 8.851562 99.140625 8.851562 100.554688 9.023438 C 101.515625 9.136719 102.136719 9.824219 102.308594 10.851562 C 102.476562 11.878906 102.253906 12.792969 101.347656 13.476562 C 101.230469 13.476562 101.121094 13.589844 100.949219 13.703125 Z M 98.234375 12.449219 C 98.746094 12.449219 99.195312 12.507812 99.648438 12.449219 C 100.214844 12.390625 100.554688 11.878906 100.496094 11.25 C 100.441406 10.679688 100.042969 10.390625 99.535156 10.390625 C 99.082031 10.335938 98.6875 10.390625 98.179688 10.390625 C 98.234375 11.078125 98.234375 11.707031 98.234375 12.449219 Z M 98.234375 12.449219 "/>
<path style=" stroke:none;fill-rule:nonzero;fill:rgb(100%,100%,100%);fill-opacity:1;" d="M 39.304688 16.960938 C 39.304688 16.160156 39.304688 15.53125 39.304688 14.902344 C 39.304688 13.074219 39.304688 11.191406 39.304688 9.363281 C 39.304688 9.078125 39.25 8.796875 39.703125 8.796875 C 40.71875 8.851562 41.679688 8.796875 42.699219 8.90625 C 44.226562 9.136719 45.246094 9.992188 45.46875 11.535156 C 45.582031 12.449219 45.582031 13.363281 45.414062 14.277344 C 45.128906 15.648438 44.226562 16.503906 42.871094 16.730469 C 41.738281 16.902344 40.550781 16.847656 39.304688 16.960938 Z M 41.226562 10.335938 C 41.226562 11.992188 41.226562 13.648438 41.226562 15.304688 C 42.8125 15.417969 43.605469 14.734375 43.714844 13.191406 C 43.714844 12.964844 43.714844 12.675781 43.714844 12.449219 C 43.546875 10.90625 42.8125 10.28125 41.226562 10.335938 Z M 41.226562 10.335938 "/>
<path style=" stroke:none;fill-rule:nonzero;fill:rgb(100%,100%,100%);fill-opacity:1;" d="M 66.28125 8.851562 C 66.28125 11.535156 66.28125 14.164062 66.28125 16.847656 C 65.660156 16.847656 65.09375 16.847656 64.472656 16.847656 C 64.472656 15.761719 64.472656 14.675781 64.472656 13.589844 C 63.566406 13.589844 62.71875 13.589844 61.757812 13.589844 C 61.757812 14.675781 61.757812 15.761719 61.757812 16.847656 C 61.136719 16.847656 60.570312 16.847656 59.949219 16.847656 C 59.949219 14.164062 59.949219 11.535156 59.949219 8.851562 C 60.511719 8.851562 61.078125 8.851562 61.699219 8.851562 C 61.699219 9.707031 61.699219 10.507812 61.699219 11.363281 C 61.699219 11.820312 61.816406 11.9375 62.265625 11.9375 C 62.945312 11.878906 63.625 11.9375 64.417969 11.9375 C 64.417969 10.90625 64.417969 9.878906 64.417969 8.851562 C 65.09375 8.851562 65.660156 8.851562 66.28125 8.851562 Z M 66.28125 8.851562 "/>
<path style=" stroke:none;fill-rule:nonzero;fill:rgb(100%,100%,100%);fill-opacity:1;" d="M 83.984375 8.851562 C 83.984375 9.878906 83.984375 10.90625 83.984375 12.046875 C 84.664062 11.078125 85.285156 10.28125 85.851562 9.421875 C 86.1875 8.90625 86.585938 8.679688 87.148438 8.734375 C 87.492188 8.796875 87.828125 8.734375 88.335938 8.734375 C 87.601562 9.707031 86.980469 10.5625 86.304688 11.363281 C 85.90625 11.820312 85.960938 12.109375 86.246094 12.621094 C 86.980469 13.761719 87.660156 14.960938 88.335938 16.160156 C 88.453125 16.332031 88.507812 16.503906 88.679688 16.789062 C 88.054688 16.789062 87.492188 16.847656 86.921875 16.789062 C 86.757812 16.789062 86.585938 16.558594 86.472656 16.390625 C 85.90625 15.476562 85.398438 14.503906 84.832031 13.589844 C 83.53125 14.390625 83.925781 15.648438 83.871094 16.789062 C 83.246094 16.789062 82.683594 16.789062 82.058594 16.789062 C 82.058594 14.164062 82.058594 11.480469 82.058594 8.851562 C 82.796875 8.851562 83.363281 8.851562 83.984375 8.851562 Z M 83.984375 8.851562 "/>
<path style=" stroke:none;fill-rule:nonzero;fill:rgb(100%,100%,100%);fill-opacity:1;" d="M 74.257812 16.847656 C 74.085938 16.847656 74.03125 16.902344 73.917969 16.902344 C 72.390625 16.960938 72.390625 16.960938 71.9375 15.476562 C 71.824219 15.132812 71.710938 14.960938 71.371094 15.019531 C 70.75 15.074219 70.128906 15.019531 69.449219 15.019531 C 69.335938 15.53125 69.164062 15.988281 69.054688 16.449219 C 68.996094 16.789062 68.828125 16.960938 68.488281 16.902344 C 68.035156 16.902344 67.640625 16.902344 67.132812 16.902344 C 67.1875 16.617188 67.242188 16.449219 67.296875 16.21875 C 68.035156 13.933594 68.714844 11.648438 69.449219 9.308594 C 69.5625 8.964844 69.730469 8.796875 70.128906 8.796875 C 71.824219 8.796875 71.824219 8.796875 72.277344 10.335938 C 72.839844 12.21875 73.464844 14.105469 74.03125 16.046875 C 74.144531 16.277344 74.199219 16.503906 74.257812 16.847656 Z M 71.484375 13.476562 C 71.203125 12.449219 70.976562 11.480469 70.75 10.507812 C 70.691406 10.507812 70.691406 10.507812 70.636719 10.507812 C 70.410156 11.480469 70.183594 12.449219 69.902344 13.476562 C 70.46875 13.476562 70.917969 13.476562 71.484375 13.476562 Z M 71.484375 13.476562 "/>
<path style=" stroke:none;fill-rule:nonzero;fill:rgb(100%,100%,100%);fill-opacity:1;" d="M 91.503906 15.304688 C 92.636719 15.304688 93.652344 15.304688 94.730469 15.304688 C 94.730469 15.820312 94.730469 16.277344 94.730469 16.789062 C 93.035156 16.789062 91.394531 16.789062 89.640625 16.789062 C 89.640625 14.105469 89.640625 11.480469 89.640625 8.796875 C 91.277344 8.796875 92.917969 8.796875 94.617188 8.796875 C 94.617188 9.308594 94.617188 9.765625 94.617188 10.28125 C 93.597656 10.28125 92.582031 10.28125 91.503906 10.28125 C 91.503906 10.851562 91.503906 11.308594 91.503906 11.820312 C 92.355469 11.820312 93.203125 11.820312 94.164062 11.820312 C 94.164062 12.390625 94.164062 12.847656 94.164062 13.363281 C 93.257812 13.363281 92.410156 13.363281 91.503906 13.363281 C 91.503906 14.105469 91.503906 14.675781 91.503906 15.304688 Z M 91.503906 15.304688 "/>
<path style=" stroke:none;fill-rule:nonzero;fill:rgb(100%,100%,100%);fill-opacity:1;" d="M 55.761719 8.851562 C 55.761719 9.363281 55.761719 9.824219 55.761719 10.335938 C 54.6875 10.335938 53.667969 10.335938 52.597656 10.335938 C 52.597656 10.90625 52.597656 11.363281 52.597656 11.9375 C 53.441406 11.9375 54.347656 11.9375 55.253906 11.9375 C 55.253906 12.449219 55.253906 12.964844 55.253906 13.476562 C 54.40625 13.476562 53.503906 13.476562 52.597656 13.476562 C 52.597656 14.105469 52.597656 14.675781 52.597656 15.304688 C 53.667969 15.304688 54.746094 15.304688 55.820312 15.304688 C 55.820312 15.875 55.820312 16.332031 55.820312 16.847656 C 54.121094 16.847656 52.425781 16.847656 50.730469 16.847656 C 50.730469 14.164062 50.730469 11.535156 50.730469 8.851562 C 52.425781 8.851562 54.066406 8.851562 55.761719 8.851562 Z M 55.761719 8.851562 "/>
<path style=" stroke:none;fill-rule:nonzero;fill:rgb(100%,100%,100%);fill-opacity:1;" d="M 108.867188 9.765625 C 108.585938 10.109375 108.304688 10.453125 107.960938 10.851562 C 107.792969 10.734375 107.625 10.621094 107.398438 10.5625 C 106.890625 10.453125 106.378906 10.335938 105.867188 10.335938 C 105.644531 10.335938 105.359375 10.621094 105.304688 10.851562 C 105.25 11.019531 105.476562 11.363281 105.644531 11.480469 C 106.152344 11.761719 106.71875 11.9375 107.226562 12.164062 C 108.585938 12.734375 109.152344 13.476562 109.039062 14.675781 C 108.925781 15.761719 108.019531 16.617188 106.71875 16.902344 C 105.476562 17.132812 104.003906 16.675781 103.042969 15.761719 C 103.382812 15.363281 103.722656 14.960938 103.890625 14.734375 C 104.796875 14.960938 105.53125 15.191406 106.265625 15.304688 C 106.664062 15.363281 107.117188 15.191406 107.058594 14.734375 C 107.058594 14.449219 106.773438 14.105469 106.492188 13.933594 C 106.039062 13.648438 105.53125 13.476562 105.023438 13.246094 C 103.777344 12.734375 103.214844 11.878906 103.324219 10.734375 C 103.4375 9.707031 104.285156 8.851562 105.53125 8.625 C 106.832031 8.507812 108.132812 8.90625 108.867188 9.765625 Z M 108.867188 9.765625 "/>
<path style=" stroke:none;fill-rule:nonzero;fill:rgb(100%,100%,100%);fill-opacity:1;" d="M 79.910156 10.90625 C 79.6875 10.734375 79.515625 10.679688 79.347656 10.5625 C 78.554688 10.109375 77.539062 10.28125 77.027344 11.078125 C 76.347656 12.046875 76.347656 13.761719 77.027344 14.792969 C 77.539062 15.476562 78.554688 15.648438 79.347656 15.191406 C 79.574219 15.074219 79.742188 14.902344 80.023438 14.734375 C 80.308594 15.074219 80.644531 15.476562 80.929688 15.820312 C 79.574219 17.703125 76.40625 17.359375 75.21875 15.304688 C 74.3125 13.761719 74.539062 11.363281 75.671875 9.992188 C 76.96875 8.453125 79.347656 8.335938 80.816406 9.824219 C 80.535156 10.109375 80.25 10.453125 79.910156 10.90625 Z M 79.910156 10.90625 "/>
<path style=" stroke:none;fill-rule:nonzero;fill:rgb(100%,100%,100%);fill-opacity:1;" d="M 48.863281 16.847656 C 48.242188 16.847656 47.675781 16.847656 47.109375 16.847656 C 47.109375 14.164062 47.109375 11.535156 47.109375 8.851562 C 47.734375 8.851562 48.242188 8.851562 48.863281 8.851562 C 48.863281 11.480469 48.863281 14.164062 48.863281 16.847656 Z M 48.863281 16.847656 "/>
<path style=" stroke:none;fill-rule:nonzero;fill:rgb(100%,100%,100%);fill-opacity:1;" d="M 29.296875 8.851562 C 29.296875 11.535156 29.296875 14.164062 29.296875 16.847656 C 28.671875 16.847656 28.109375 16.847656 27.542969 16.847656 C 27.542969 14.164062 27.542969 11.535156 27.542969 8.851562 C 28.109375 8.851562 28.671875 8.851562 29.296875 8.851562 Z M 29.296875 8.851562 "/>
</g>
</svg>
