<?xml version="1.0" encoding="UTF-8"?>
<svg xmlns="http://www.w3.org/2000/svg" xmlns:xlink="http://www.w3.org/1999/xlink" width="111pt" height="17pt" viewBox="0 0 111 17" version="1.1">
<g id="surface1">
<path style=" stroke:none;fill-rule:nonzero;fill:rgb(100%,100%,100%);fill-opacity:1;" d="M 8.898438 16.695312 C 4.375 16.695312 0.695312 13.003906 0.695312 8.40625 C 0.695312 3.804688 4.375 0.167969 8.957031 0.167969 C 13.480469 0.167969 17.160156 3.863281 17.160156 8.460938 C 17.160156 13.003906 13.480469 16.695312 8.898438 16.695312 C 8.957031 16.695312 8.957031 16.695312 8.898438 16.695312 Z M 8.898438 16.695312 "/>
<path style=" stroke:none;fill-rule:nonzero;fill:rgb(100%,100%,100%);fill-opacity:1;" d="M 36.167969 3.179688 L 36.167969 14.480469 C 36.167969 14.59375 36.167969 14.710938 36.167969 14.824219 C 36.226562 15.449219 36.679688 15.902344 37.300781 15.957031 C 37.414062 15.957031 37.472656 16.015625 37.414062 16.1875 L 34.019531 16.1875 C 33.960938 16.070312 34.019531 16.015625 34.132812 15.957031 C 34.191406 15.957031 34.246094 15.957031 34.300781 15.902344 C 34.867188 15.785156 35.320312 15.277344 35.265625 14.652344 C 35.265625 14.59375 35.265625 14.480469 35.265625 14.425781 C 35.265625 10.449219 35.265625 6.417969 35.265625 2.386719 C 35.265625 2.214844 35.265625 2.046875 35.207031 1.875 C 35.148438 1.421875 34.753906 1.023438 34.300781 0.964844 C 34.246094 0.910156 34.132812 0.910156 34.078125 0.910156 C 33.960938 0.910156 33.90625 0.792969 33.960938 0.683594 L 38.828125 0.683594 C 38.941406 0.683594 39.054688 0.738281 39.054688 0.851562 L 42.898438 9.9375 L 43.296875 10.847656 L 43.351562 10.734375 L 47.089844 1.929688 C 47.257812 1.53125 47.429688 1.191406 47.542969 0.792969 C 47.542969 0.738281 47.597656 0.683594 47.652344 0.683594 L 52.179688 0.683594 C 52.234375 0.792969 52.179688 0.851562 52.066406 0.910156 C 51.386719 0.964844 50.878906 1.648438 50.933594 2.328125 C 50.933594 2.386719 50.933594 2.441406 50.933594 2.5 C 50.933594 6.53125 50.933594 10.5625 50.933594 14.59375 C 50.933594 14.710938 50.933594 14.824219 50.933594 14.933594 C 50.992188 15.390625 51.277344 15.730469 51.671875 15.902344 C 51.785156 15.957031 51.953125 16.015625 52.066406 16.015625 C 52.179688 16.015625 52.179688 16.128906 52.179688 16.242188 L 46.464844 16.242188 C 46.410156 16.128906 46.464844 16.070312 46.578125 16.015625 C 46.808594 15.957031 47.03125 15.84375 47.257812 15.730469 C 47.597656 15.503906 47.765625 15.164062 47.765625 14.765625 L 47.765625 2.839844 C 47.765625 2.894531 47.710938 2.953125 47.710938 2.953125 L 46.296875 6.246094 L 44.257812 10.960938 C 43.523438 12.609375 42.84375 14.308594 42.109375 16.015625 C 42.054688 16.128906 41.996094 16.128906 41.882812 16.128906 C 41.769531 16.128906 41.710938 16.070312 41.65625 16.015625 L 38.714844 9.03125 C 37.921875 7.15625 37.074219 5.222656 36.285156 3.292969 Z M 36.167969 3.179688 "/>
<path style=" stroke:none;fill-rule:nonzero;fill:rgb(100%,100%,100%);fill-opacity:1;" d="M 103.492188 16.1875 L 99.195312 16.1875 L 99.195312 16.015625 C 99.195312 13.289062 99.195312 10.617188 99.195312 7.894531 C 99.195312 7.4375 99.136719 7.039062 98.96875 6.644531 C 98.570312 5.960938 97.78125 5.738281 97.101562 6.132812 C 96.988281 6.191406 96.929688 6.246094 96.816406 6.363281 C 96.707031 6.53125 96.535156 6.699219 96.476562 6.871094 C 96.421875 6.929688 96.421875 6.984375 96.421875 7.101562 L 96.421875 14.765625 C 96.421875 14.878906 96.421875 15.046875 96.476562 15.164062 C 96.535156 15.5625 96.875 15.902344 97.269531 15.957031 C 97.382812 15.957031 97.441406 16.070312 97.382812 16.1875 L 93.082031 16.1875 L 93.082031 15.957031 C 93.082031 13.117188 93.082031 10.277344 93.082031 7.4375 C 93.082031 7.210938 93.082031 7.039062 93.027344 6.816406 C 92.972656 6.363281 92.628906 5.960938 92.179688 5.90625 C 92.066406 5.90625 92.007812 5.90625 91.894531 5.847656 C 91.839844 5.847656 91.785156 5.792969 91.785156 5.738281 C 91.726562 5.679688 91.839844 5.621094 91.894531 5.621094 L 93.933594 5.054688 L 96.253906 4.484375 L 96.421875 4.429688 L 96.421875 6.300781 C 96.535156 6.078125 96.648438 5.90625 96.761719 5.679688 C 97.382812 4.769531 98.402344 4.261719 99.535156 4.371094 C 100.042969 4.371094 100.554688 4.484375 101.007812 4.714844 C 101.683594 5.054688 102.195312 5.621094 102.363281 6.300781 L 102.417969 6.472656 C 102.476562 6.363281 102.53125 6.246094 102.585938 6.191406 C 103.152344 5 104.398438 4.316406 105.699219 4.429688 C 106.265625 4.429688 106.777344 4.542969 107.230469 4.828125 C 107.964844 5.222656 108.472656 6.019531 108.640625 6.871094 C 108.699219 7.210938 108.757812 7.554688 108.757812 7.894531 C 108.757812 10.109375 108.757812 12.265625 108.757812 14.480469 C 108.640625 15.164062 109.09375 15.84375 109.832031 15.957031 C 109.832031 15.957031 109.886719 15.957031 109.886719 15.957031 C 110.058594 16.015625 110.058594 16.015625 110 16.1875 L 105.417969 16.1875 L 105.417969 15.957031 C 105.417969 13.289062 105.417969 10.5625 105.417969 7.894531 C 105.417969 7.554688 105.359375 7.210938 105.304688 6.871094 C 105.078125 6.132812 104.289062 5.738281 103.605469 5.960938 C 103.382812 6.019531 103.210938 6.132812 103.039062 6.300781 C 102.984375 6.363281 102.871094 6.472656 102.816406 6.585938 C 102.648438 6.816406 102.585938 7.039062 102.648438 7.324219 C 102.648438 7.4375 102.703125 7.609375 102.703125 7.722656 L 102.703125 14.652344 C 102.703125 14.824219 102.703125 14.933594 102.757812 15.109375 C 102.816406 15.503906 103.152344 15.84375 103.550781 15.902344 C 103.492188 16.015625 103.550781 16.070312 103.492188 16.1875 Z M 103.492188 16.1875 "/>
<path style=" stroke:none;fill-rule:nonzero;fill:rgb(100%,100%,100%);fill-opacity:1;" d="M 17.894531 8.347656 C 17.894531 6.699219 18.179688 5.109375 18.800781 3.578125 C 19.082031 2.785156 19.589844 2.046875 20.214844 1.476562 C 20.722656 0.910156 21.515625 0.625 22.25 0.683594 C 22.875 0.738281 23.4375 1.078125 23.890625 1.53125 C 24.570312 2.269531 25.078125 3.125 25.421875 4.03125 C 25.984375 5.738281 26.210938 7.496094 26.097656 9.316406 C 26.042969 10.617188 25.757812 11.925781 25.25 13.175781 C 24.910156 14.085938 24.402344 14.878906 23.722656 15.503906 C 23.101562 16.128906 22.195312 16.355469 21.347656 16.128906 C 20.722656 15.902344 20.15625 15.503906 19.761719 14.992188 C 19.082031 14.085938 18.574219 13.117188 18.347656 12.039062 C 18.066406 10.789062 17.894531 9.539062 17.894531 8.347656 Z M 17.894531 8.347656 "/>
<path style=" stroke:none;fill-rule:nonzero;fill:rgb(100%,100%,100%);fill-opacity:1;" d="M 69.832031 4.882812 C 69.832031 4.429688 69.832031 3.976562 69.832031 3.523438 C 69.832031 3.292969 69.832031 3.007812 69.832031 2.785156 C 69.886719 2.214844 69.433594 1.761719 68.867188 1.703125 C 68.644531 1.703125 68.363281 1.703125 68.132812 1.703125 L 67.964844 1.703125 C 67.910156 1.589844 67.964844 1.53125 68.078125 1.476562 L 73 0 L 73.113281 0 L 73.113281 14.425781 C 73.113281 14.59375 73.113281 14.765625 73.167969 14.933594 C 73.226562 15.390625 73.566406 15.730469 73.960938 15.84375 L 74.414062 15.957031 L 74.414062 16.128906 L 69.773438 16.128906 L 69.773438 14.480469 C 69.605469 14.765625 69.378906 15.109375 69.152344 15.390625 C 68.585938 16.070312 67.796875 16.46875 66.890625 16.527344 C 65.417969 16.640625 64.003906 15.84375 63.324219 14.480469 C 62.757812 13.460938 62.535156 12.324219 62.535156 11.1875 C 62.476562 10.054688 62.644531 8.972656 63.042969 7.949219 C 63.496094 6.757812 64.34375 5.738281 65.417969 5.109375 C 66.492188 4.484375 67.738281 4.316406 68.929688 4.601562 C 69.265625 4.65625 69.550781 4.769531 69.832031 4.882812 Z M 69.832031 9.9375 C 69.832031 8.6875 69.832031 7.4375 69.832031 6.191406 C 69.832031 5.960938 69.71875 5.738281 69.605469 5.566406 C 69.433594 5.394531 69.210938 5.222656 68.984375 5.167969 C 68.417969 5 67.796875 5.167969 67.398438 5.621094 C 67.058594 5.960938 66.832031 6.363281 66.722656 6.816406 C 66.492188 7.496094 66.324219 8.234375 66.269531 8.972656 C 66.15625 10.109375 66.210938 11.246094 66.492188 12.378906 C 66.660156 13.0625 66.945312 13.742188 67.457031 14.253906 C 67.910156 14.710938 68.585938 14.824219 69.152344 14.59375 C 69.605469 14.425781 69.886719 14.027344 69.832031 13.570312 Z M 69.832031 9.9375 "/>
<path style=" stroke:none;fill-rule:nonzero;fill:rgb(100%,100%,100%);fill-opacity:1;" d="M 79.730469 5.960938 C 79.675781 5.847656 79.730469 5.792969 79.84375 5.738281 C 81.316406 5.339844 82.789062 4.882812 84.257812 4.484375 L 84.371094 4.429688 L 84.371094 4.601562 C 84.371094 7.324219 84.371094 10.054688 84.371094 12.722656 C 84.371094 13.003906 84.429688 13.289062 84.484375 13.570312 C 84.710938 14.371094 85.503906 14.824219 86.296875 14.652344 C 86.464844 14.59375 86.636719 14.539062 86.75 14.425781 C 86.859375 14.371094 86.972656 14.253906 87.085938 14.140625 C 87.257812 13.96875 87.371094 13.6875 87.371094 13.460938 C 87.371094 11.414062 87.371094 9.425781 87.371094 7.382812 C 87.371094 7.15625 87.371094 6.984375 87.3125 6.757812 C 87.3125 6.300781 86.917969 5.90625 86.40625 5.90625 C 86.351562 5.90625 86.296875 5.90625 86.296875 5.792969 C 86.296875 5.679688 86.351562 5.679688 86.40625 5.621094 L 90.539062 4.429688 L 90.707031 4.371094 L 90.707031 14.199219 C 90.707031 14.425781 90.707031 14.59375 90.765625 14.824219 C 90.820312 15.277344 91.105469 15.671875 91.554688 15.785156 C 91.671875 15.84375 91.785156 15.84375 91.894531 15.902344 C 92.007812 15.902344 92.066406 15.957031 92.007812 16.128906 L 87.3125 16.128906 L 87.3125 14.371094 C 87.144531 14.652344 87.03125 14.878906 86.859375 15.109375 C 86.125 16.070312 84.9375 16.582031 83.75 16.410156 C 83.238281 16.355469 82.730469 16.1875 82.335938 15.902344 C 81.769531 15.503906 81.371094 14.933594 81.203125 14.253906 C 81.089844 13.742188 81.03125 13.289062 81.03125 12.777344 C 81.03125 11.015625 81.03125 9.199219 81.03125 7.4375 C 81.03125 7.269531 81.03125 7.039062 80.976562 6.871094 C 80.917969 6.363281 80.527344 5.960938 80.074219 5.960938 Z M 79.730469 5.960938 "/>
<path style=" stroke:none;fill-rule:nonzero;fill:rgb(100%,100%,100%);fill-opacity:1;" d="M 62.023438 9.484375 L 55.007812 9.484375 C 55.007812 9.769531 55.007812 9.996094 55.007812 10.222656 C 55.0625 11.132812 55.40625 11.984375 55.96875 12.664062 C 56.59375 13.515625 57.609375 14.027344 58.6875 13.96875 C 59.476562 13.914062 60.269531 13.570312 60.835938 12.949219 C 61.117188 12.609375 61.402344 12.265625 61.570312 11.871094 C 61.628906 11.8125 61.628906 11.753906 61.742188 11.8125 C 61.800781 11.8125 61.855469 11.871094 61.855469 11.925781 C 61.683594 13.289062 61.0625 14.539062 60.101562 15.449219 C 59.476562 15.957031 58.742188 16.300781 57.894531 16.410156 C 57.046875 16.527344 56.199219 16.46875 55.40625 16.128906 C 54.441406 15.730469 53.652344 15.046875 53.140625 14.140625 C 52.632812 13.289062 52.351562 12.324219 52.292969 11.300781 C 52.179688 10.164062 52.292969 8.972656 52.6875 7.894531 C 53.03125 6.757812 53.820312 5.792969 54.839844 5.109375 C 55.800781 4.542969 56.933594 4.316406 58.0625 4.484375 C 58.855469 4.601562 59.59375 4.882812 60.214844 5.339844 C 61.0625 6.019531 61.628906 6.984375 61.800781 8.007812 C 61.910156 8.515625 61.96875 8.972656 62.023438 9.484375 Z M 55.0625 8.859375 L 59.027344 8.859375 C 59.027344 8.40625 59.027344 8.007812 58.96875 7.554688 C 58.96875 6.984375 58.796875 6.417969 58.515625 5.90625 C 58.121094 5.222656 57.214844 4.941406 56.480469 5.339844 C 56.367188 5.394531 56.253906 5.507812 56.199219 5.566406 C 55.96875 5.792969 55.746094 6.132812 55.632812 6.417969 C 55.292969 7.210938 55.125 8.007812 55.0625 8.859375 Z M 55.0625 8.859375 "/>
<path style=" stroke:none;fill-rule:nonzero;fill:rgb(100%,100%,100%);fill-opacity:1;" d="M 80.074219 16.015625 L 80.074219 16.1875 L 75.433594 16.1875 L 75.433594 7.667969 C 75.433594 7.4375 75.433594 7.210938 75.375 6.984375 C 75.375 6.472656 74.980469 6.019531 74.472656 6.019531 L 74.242188 5.960938 C 74.1875 5.960938 74.132812 5.960938 74.074219 5.847656 C 74.019531 5.738281 74.132812 5.738281 74.1875 5.738281 L 76.679688 5.054688 L 78.601562 4.484375 L 78.769531 4.429688 L 78.769531 14.308594 C 78.769531 14.539062 78.769531 14.710938 78.824219 14.933594 C 78.886719 15.390625 79.167969 15.730469 79.621094 15.84375 C 79.789062 15.957031 79.960938 15.957031 80.074219 16.015625 Z M 80.074219 16.015625 "/>
<path style=" stroke:none;fill-rule:nonzero;fill:rgb(100%,100%,100%);fill-opacity:1;" d="M 29.777344 8.121094 C 29.777344 9.882812 29.664062 11.640625 29.324219 13.347656 C 29.210938 13.855469 29.097656 14.371094 28.871094 14.824219 C 28.8125 14.933594 28.703125 15.046875 28.644531 15.164062 C 28.53125 15.332031 28.304688 15.390625 28.136719 15.277344 C 28.078125 15.21875 28.078125 15.21875 28.023438 15.164062 C 27.90625 14.992188 27.796875 14.824219 27.683594 14.59375 C 27.457031 14.027344 27.285156 13.402344 27.230469 12.832031 C 26.949219 10.960938 26.832031 9.03125 26.890625 7.15625 C 26.949219 5.792969 27.0625 4.429688 27.34375 3.125 C 27.457031 2.667969 27.625 2.160156 27.851562 1.761719 C 28.136719 1.25 28.472656 1.25 28.757812 1.761719 C 28.984375 2.160156 29.15625 2.667969 29.265625 3.125 C 29.492188 4.261719 29.664062 5.394531 29.722656 6.53125 C 29.777344 7.101562 29.777344 7.667969 29.777344 8.121094 Z M 29.777344 8.121094 "/>
<path style=" stroke:none;fill-rule:nonzero;fill:rgb(100%,100%,100%);fill-opacity:1;" d="M 78.886719 1.984375 C 78.886719 3.007812 78.089844 3.804688 77.128906 3.804688 C 77.128906 3.804688 77.074219 3.804688 77.074219 3.804688 C 76.054688 3.804688 75.261719 2.953125 75.261719 1.984375 C 75.261719 1.023438 76.113281 0.167969 77.074219 0.167969 C 78.089844 0.167969 78.886719 0.910156 78.941406 1.929688 C 78.886719 1.875 78.886719 1.929688 78.886719 1.984375 Z M 78.886719 1.984375 "/>
</g>
</svg>
