<?xml version="1.0" encoding="UTF-8"?>
<svg xmlns="http://www.w3.org/2000/svg" xmlns:xlink="http://www.w3.org/1999/xlink" width="109pt" height="26pt" viewBox="0 0 109 26" version="1.1">
<g id="surface1">
<path style=" stroke:none;fill-rule:nonzero;fill:rgb(100%,100%,100%);fill-opacity:1;" d="M 20.699219 0 C 21.09375 0.113281 21.546875 0.226562 21.886719 0.515625 C 22.621094 1.085938 23.019531 1.828125 23.019531 2.738281 C 23.019531 5.023438 23.019531 7.25 23.019531 9.535156 C 23.019531 10.90625 22 12.046875 20.699219 12.21875 C 19.285156 12.390625 18.039062 11.535156 17.757812 10.164062 C 17.703125 9.9375 17.703125 9.707031 17.703125 9.535156 C 17.703125 7.308594 17.703125 5.082031 17.703125 2.800781 C 17.703125 1.429688 18.605469 0.34375 19.964844 0.113281 C 20.023438 0.113281 20.023438 0.113281 20.078125 0.0546875 C 20.246094 0 20.472656 0 20.699219 0 Z M 20.699219 0 "/>
<path style=" stroke:none;fill-rule:nonzero;fill:rgb(100%,100%,100%);fill-opacity:1;" d="M 13.96875 0 C 14.363281 0.113281 14.816406 0.226562 15.15625 0.515625 C 15.894531 1.027344 16.289062 1.769531 16.289062 2.628906 C 16.289062 3.539062 16.289062 4.394531 16.289062 5.3125 C 16.289062 5.3125 16.289062 5.367188 16.289062 5.425781 C 16.230469 5.425781 16.175781 5.425781 16.175781 5.425781 C 15.324219 5.425781 14.480469 5.425781 13.574219 5.425781 C 12.046875 5.425781 10.914062 4.167969 10.914062 2.628906 C 10.914062 1.371094 11.875 0.285156 13.121094 0.0546875 C 13.175781 0.0546875 13.234375 0 13.289062 0 C 13.515625 0 13.742188 0 13.96875 0 Z M 13.96875 0 "/>
<path style=" stroke:none;fill-rule:nonzero;fill:rgb(100%,100%,100%);fill-opacity:1;" d="M 89.921875 0.398438 C 91.335938 0.398438 92.808594 0.398438 94.21875 0.398438 C 94.21875 2.511719 94.21875 4.566406 94.21875 6.625 C 94.21875 8.679688 94.21875 10.792969 94.21875 12.964844 C 94.332031 12.847656 94.390625 12.792969 94.445312 12.734375 C 95.972656 10.90625 97.5 9.078125 99.027344 7.195312 C 99.140625 7.078125 99.195312 7.023438 99.367188 7.023438 C 101.003906 7.023438 102.644531 7.023438 104.230469 7.023438 C 104.285156 7.023438 104.34375 7.023438 104.457031 7.023438 C 102.417969 9.421875 100.441406 11.761719 98.40625 14.105469 C 100.554688 16.617188 102.761719 19.1875 104.964844 21.757812 C 104.851562 21.757812 104.738281 21.757812 104.683594 21.757812 C 103.042969 21.757812 101.347656 21.757812 99.707031 21.757812 C 99.480469 21.757812 99.367188 21.699219 99.253906 21.527344 C 97.671875 19.53125 96.03125 17.53125 94.445312 15.53125 C 94.390625 15.476562 94.390625 15.417969 94.277344 15.363281 C 94.277344 17.53125 94.277344 19.644531 94.277344 21.757812 C 92.808594 21.757812 91.394531 21.757812 89.980469 21.757812 C 89.921875 14.675781 89.921875 7.539062 89.921875 0.398438 Z M 89.921875 0.398438 "/>
<path style=" stroke:none;fill-rule:nonzero;fill:rgb(100%,100%,100%);fill-opacity:1;" d="M 67.75 8.679688 C 67.75 8.167969 67.75 7.597656 67.75 7.023438 C 69.222656 7.023438 70.636719 7.023438 72.050781 7.023438 C 72.050781 11.9375 72.050781 16.789062 72.050781 21.699219 C 70.636719 21.699219 69.164062 21.699219 67.75 21.699219 C 67.75 21.1875 67.75 20.617188 67.75 20.042969 C 67.695312 20.042969 67.695312 20.042969 67.695312 20.042969 C 67.015625 21.015625 66.054688 21.585938 64.925781 21.816406 C 62.378906 22.386719 60.289062 21.644531 58.59375 19.703125 C 57.117188 18.046875 56.554688 16.046875 56.667969 13.820312 C 56.78125 11.589844 57.628906 9.707031 59.328125 8.222656 C 61.304688 6.453125 64.300781 6.167969 66.507812 7.480469 C 66.960938 7.769531 67.414062 8.109375 67.695312 8.566406 C 67.695312 8.566406 67.695312 8.625 67.75 8.625 C 67.695312 8.734375 67.75 8.734375 67.75 8.679688 Z M 67.75 14.449219 C 67.75 13.933594 67.75 13.417969 67.75 12.90625 C 67.75 12.734375 67.695312 12.5625 67.582031 12.449219 C 66.789062 11.363281 65.773438 10.851562 64.417969 10.792969 C 61.984375 10.734375 60.175781 13.019531 60.796875 15.363281 C 61.25 17.1875 62.945312 18.332031 64.8125 18.101562 C 65.941406 17.988281 66.847656 17.476562 67.582031 16.558594 C 67.695312 16.390625 67.75 16.277344 67.75 16.105469 C 67.75 15.476562 67.75 14.960938 67.75 14.449219 Z M 67.75 14.449219 "/>
<path style=" stroke:none;fill-rule:nonzero;fill:rgb(100%,100%,100%);fill-opacity:1;" d="M 84.71875 16.21875 C 85.851562 16.847656 86.980469 17.476562 88.167969 18.160156 C 87.207031 20.101562 84.605469 22.328125 81.042969 22.097656 C 77.253906 21.816406 74.425781 18.902344 73.972656 15.417969 C 73.464844 11.480469 75.953125 8.050781 79.402344 7.078125 C 83.019531 6.050781 86.585938 7.824219 88.167969 10.734375 C 87.039062 11.363281 85.851562 11.992188 84.71875 12.675781 C 83.984375 11.480469 82.964844 10.851562 81.550781 10.851562 C 80.535156 10.851562 79.6875 11.191406 78.949219 11.9375 C 77.480469 13.417969 77.59375 15.820312 79.121094 17.246094 C 80.761719 18.617188 83.472656 18.332031 84.71875 16.21875 Z M 84.71875 16.21875 "/>
<path style=" stroke:none;fill-rule:nonzero;fill:rgb(100%,100%,100%);fill-opacity:1;" d="M 37.722656 17.304688 C 38.515625 17.875 39.421875 18.273438 40.324219 18.558594 C 41.285156 18.789062 42.300781 18.960938 43.320312 18.789062 C 43.714844 18.730469 44.058594 18.617188 44.339844 18.386719 C 44.960938 17.875 44.902344 17.132812 44.226562 16.730469 C 43.660156 16.449219 43.035156 16.332031 42.417969 16.160156 C 41.398438 15.929688 40.4375 15.761719 39.476562 15.304688 C 38.796875 15.019531 38.171875 14.675781 37.722656 14.105469 C 36.984375 13.191406 36.761719 12.164062 36.929688 11.019531 C 37.210938 9.078125 38.398438 7.878906 40.15625 7.195312 C 41.226562 6.738281 42.359375 6.679688 43.488281 6.738281 C 44.847656 6.796875 46.148438 7.078125 47.335938 7.769531 C 47.617188 7.9375 47.898438 8.109375 48.1875 8.335938 C 48.242188 8.394531 48.296875 8.453125 48.242188 8.507812 C 47.898438 9.480469 47.507812 10.390625 47.109375 11.363281 C 47.109375 11.363281 47.109375 11.363281 47.054688 11.417969 C 46.882812 11.363281 46.769531 11.25 46.601562 11.191406 C 45.355469 10.507812 44 9.992188 42.585938 9.992188 C 42.246094 9.992188 41.90625 10.050781 41.566406 10.164062 C 41.398438 10.222656 41.226562 10.335938 41.058594 10.453125 C 40.550781 10.851562 40.550781 11.535156 41.117188 11.878906 C 41.453125 12.109375 41.90625 12.277344 42.300781 12.390625 C 43.320312 12.734375 44.339844 12.964844 45.355469 13.304688 C 45.808594 13.476562 46.320312 13.703125 46.714844 13.933594 C 48.351562 14.902344 49.03125 16.558594 48.578125 18.386719 C 48.125 20.042969 47.054688 21.015625 45.527344 21.644531 C 44.566406 21.988281 43.605469 22.097656 42.585938 22.097656 C 41.003906 22.042969 39.421875 21.816406 37.945312 21.128906 C 37.4375 20.898438 36.984375 20.617188 36.535156 20.332031 C 36.476562 20.269531 36.421875 20.160156 36.476562 20.160156 C 36.875 19.1875 37.269531 18.273438 37.722656 17.304688 Z M 37.722656 17.304688 "/>
<path style=" stroke:none;fill-rule:nonzero;fill:rgb(100%,100%,100%);fill-opacity:1;" d="M 54.859375 0.398438 C 54.859375 7.539062 54.859375 14.675781 54.859375 21.816406 C 53.441406 21.816406 51.972656 21.816406 50.558594 21.816406 C 50.558594 14.675781 50.558594 7.539062 50.558594 0.398438 C 51.972656 0.398438 53.386719 0.398438 54.859375 0.398438 Z M 54.859375 0.398438 "/>
<path style=" stroke:none;fill-rule:nonzero;fill:rgb(100%,100%,100%);fill-opacity:1;" d="M 10.234375 12.164062 C 9.164062 12.164062 8.03125 12.164062 6.957031 12.164062 C 5.65625 12.164062 4.582031 11.308594 4.300781 10.050781 C 3.957031 8.394531 5.203125 6.796875 6.84375 6.796875 C 9.105469 6.796875 11.421875 6.796875 13.683594 6.796875 C 15.097656 6.796875 16.230469 7.996094 16.289062 9.421875 C 16.34375 10.792969 15.269531 12.046875 13.910156 12.21875 C 13.742188 12.21875 13.574219 12.21875 13.457031 12.21875 C 12.386719 12.164062 11.3125 12.164062 10.234375 12.164062 Z M 10.234375 12.164062 "/>
<path style=" stroke:none;fill-rule:nonzero;fill:rgb(100%,100%,100%);fill-opacity:1;" d="M 23.699219 18.960938 C 22.621094 18.960938 21.492188 18.960938 20.414062 18.960938 C 19 18.960938 17.929688 18.046875 17.703125 16.617188 C 17.476562 15.132812 18.664062 13.589844 20.1875 13.589844 C 22.566406 13.535156 24.886719 13.589844 27.257812 13.589844 C 28.503906 13.589844 29.632812 14.675781 29.75 15.929688 C 29.859375 17.359375 29.015625 18.617188 27.710938 18.902344 C 27.484375 18.960938 27.203125 18.960938 26.976562 18.960938 C 25.847656 18.960938 24.769531 18.960938 23.699219 18.960938 Z M 23.699219 18.960938 "/>
<path style=" stroke:none;fill-rule:nonzero;fill:rgb(100%,100%,100%);fill-opacity:1;" d="M 16.289062 19.644531 C 16.289062 20.789062 16.289062 21.871094 16.289062 23.015625 C 16.289062 24.554688 15.042969 25.753906 13.515625 25.699219 C 12.160156 25.640625 10.972656 24.5 10.972656 23.070312 C 10.972656 20.789062 10.972656 18.445312 10.972656 16.160156 C 10.972656 14.792969 12.101562 13.648438 13.457031 13.535156 C 14.933594 13.476562 16.117188 14.449219 16.289062 15.875 C 16.289062 16.046875 16.34375 16.21875 16.34375 16.332031 C 16.289062 17.476562 16.289062 18.558594 16.289062 19.644531 Z M 16.289062 19.644531 "/>
<path style=" stroke:none;fill-rule:nonzero;fill:rgb(100%,100%,100%);fill-opacity:1;" d="M 24.375 12.164062 C 24.375 11.191406 24.375 10.164062 24.375 9.195312 C 24.375 9.078125 24.375 8.964844 24.433594 8.851562 C 24.714844 7.539062 25.957031 6.625 27.316406 6.738281 C 28.671875 6.910156 29.75 8.050781 29.691406 9.421875 C 29.691406 10.792969 28.671875 11.992188 27.316406 12.109375 C 26.355469 12.164062 25.449219 12.109375 24.488281 12.164062 C 24.488281 12.164062 24.433594 12.164062 24.375 12.164062 Z M 24.375 12.164062 "/>
<path style=" stroke:none;fill-rule:nonzero;fill:rgb(100%,100%,100%);fill-opacity:1;" d="M 17.703125 20.332031 C 17.757812 20.332031 17.8125 20.332031 17.8125 20.332031 C 18.664062 20.332031 19.511719 20.332031 20.414062 20.332031 C 21.773438 20.332031 22.902344 21.414062 23.019531 22.785156 C 23.128906 24.097656 22.339844 25.300781 21.09375 25.640625 C 19.851562 25.984375 18.546875 25.410156 17.984375 24.269531 C 17.8125 23.925781 17.703125 23.527344 17.703125 23.128906 C 17.703125 22.269531 17.703125 21.414062 17.703125 20.558594 C 17.644531 20.386719 17.703125 20.386719 17.703125 20.332031 Z M 17.703125 20.332031 "/>
<path style=" stroke:none;fill-rule:nonzero;fill:rgb(100%,100%,100%);fill-opacity:1;" d="M 9.617188 13.535156 C 9.617188 13.875 9.617188 14.21875 9.617188 14.5625 C 9.617188 15.132812 9.617188 15.703125 9.617188 16.277344 C 9.554688 17.585938 8.59375 18.730469 7.296875 18.902344 C 5.9375 19.074219 4.691406 18.214844 4.355469 16.902344 C 3.902344 15.246094 5.144531 13.535156 6.898438 13.535156 C 7.75 13.535156 8.652344 13.535156 9.617188 13.535156 Z M 9.617188 13.535156 "/>
</g>
</svg>
