<?xml version="1.0" encoding="UTF-8"?>
<svg xmlns="http://www.w3.org/2000/svg" xmlns:xlink="http://www.w3.org/1999/xlink" width="109pt" height="26pt" viewBox="0 0 109 26" version="1.1">
<g id="surface1">
<path style=" stroke:none;fill-rule:nonzero;fill:rgb(100%,100%,100%);fill-opacity:1;" d="M 15.382812 5.023438 C 15.382812 6.566406 15.382812 8.109375 15.382812 9.652344 C 15.382812 9.824219 15.382812 9.992188 15.382812 10.222656 C 13.742188 10.222656 12.160156 10.222656 10.519531 10.222656 C 10.351562 10.222656 10.234375 10.28125 10.234375 10.507812 C 10.234375 10.621094 10.234375 10.679688 10.234375 10.792969 C 10.234375 13.875 10.234375 16.960938 10.234375 20.042969 C 10.234375 20.214844 10.234375 20.332031 10.234375 20.5 C 8.539062 20.5 6.898438 20.5 5.144531 20.5 C 5.144531 20.332031 5.144531 20.214844 5.144531 20.042969 C 5.144531 16.902344 5.144531 13.761719 5.144531 10.679688 C 5.144531 10.335938 5.035156 10.222656 4.691406 10.222656 C 3.28125 10.222656 1.867188 10.222656 0.453125 10.222656 C 0.339844 10.222656 0.171875 10.222656 0 10.222656 C 0 8.507812 0 6.796875 0 5.082031 C 5.144531 5.023438 10.234375 5.023438 15.382812 5.023438 Z M 15.382812 5.023438 "/>
<path style=" stroke:none;fill-rule:nonzero;fill:rgb(100%,100%,100%);fill-opacity:1;" d="M 30.765625 5.023438 C 30.765625 6.738281 30.765625 8.394531 30.765625 10.164062 C 30.59375 10.164062 30.484375 10.164062 30.371094 10.164062 C 27.257812 10.164062 24.148438 10.164062 20.984375 10.164062 C 20.640625 10.164062 20.53125 10.050781 20.53125 9.707031 C 20.53125 8.167969 20.53125 6.566406 20.585938 5.023438 C 23.980469 5.023438 27.371094 5.023438 30.765625 5.023438 Z M 30.765625 5.023438 "/>
<path style=" stroke:none;fill-rule:nonzero;fill:rgb(100%,100%,100%);fill-opacity:1;" d="M 109.152344 17.929688 C 108.414062 17.929688 107.625 17.929688 106.832031 17.929688 C 106.832031 17.757812 106.832031 17.644531 106.832031 17.53125 C 106.832031 16.449219 106.832031 15.363281 106.832031 14.277344 C 106.832031 14.046875 106.832031 13.820312 106.773438 13.589844 C 106.71875 13.191406 106.4375 12.964844 106.039062 13.019531 C 105.644531 13.019531 105.417969 13.191406 105.359375 13.648438 C 105.304688 13.820312 105.304688 14.046875 105.304688 14.21875 C 105.304688 15.304688 105.304688 16.449219 105.304688 17.53125 C 105.304688 17.644531 105.304688 17.816406 105.304688 17.929688 C 104.511719 17.929688 103.777344 17.929688 102.988281 17.929688 C 102.988281 17.816406 102.988281 17.703125 102.988281 17.53125 C 102.988281 14.960938 102.988281 12.390625 102.988281 9.824219 C 102.988281 9.535156 103.097656 9.363281 103.324219 9.308594 C 103.949219 9.078125 104.570312 8.796875 105.25 8.566406 C 105.25 9.59375 105.25 10.5625 105.25 11.535156 C 105.644531 11.363281 105.984375 11.191406 106.320312 11.078125 C 107.792969 10.734375 108.753906 11.417969 109.039062 12.90625 C 109.039062 12.964844 109.09375 13.019531 109.09375 13.136719 C 109.152344 14.734375 109.152344 16.332031 109.152344 17.929688 Z M 109.152344 17.929688 "/>
<path style=" stroke:none;fill-rule:nonzero;fill:rgb(100%,100%,100%);fill-opacity:1;" d="M 15.324219 10.222656 C 17.023438 10.222656 18.71875 10.222656 20.472656 10.222656 C 20.472656 10.390625 20.472656 10.5625 20.472656 10.679688 C 20.472656 12.109375 20.472656 13.535156 20.472656 14.960938 C 20.472656 15.304688 20.585938 15.417969 20.925781 15.417969 C 24.035156 15.417969 27.148438 15.417969 30.257812 15.417969 C 30.425781 15.417969 30.539062 15.417969 30.710938 15.417969 C 30.710938 17.132812 30.710938 18.789062 30.710938 20.5 C 25.621094 20.5 20.53125 20.5 15.382812 20.5 C 15.382812 20.332031 15.382812 20.214844 15.382812 20.042969 C 15.382812 16.902344 15.382812 13.820312 15.382812 10.679688 C 15.382812 10.507812 15.382812 10.335938 15.324219 10.222656 C 15.382812 10.164062 15.324219 10.222656 15.324219 10.222656 Z M 15.324219 10.222656 "/>
<path style=" stroke:none;fill-rule:nonzero;fill:rgb(100%,100%,100%);fill-opacity:1;" d="M 73.066406 11.417969 C 72.332031 11.707031 71.597656 11.992188 70.863281 12.277344 C 70.75 11.992188 70.636719 11.761719 70.46875 11.535156 C 69.957031 10.679688 68.714844 10.679688 68.261719 11.589844 C 67.695312 12.792969 67.695312 14.046875 68.261719 15.191406 C 68.65625 15.988281 69.730469 16.105469 70.355469 15.417969 C 70.582031 15.191406 70.75 14.902344 70.976562 14.5625 C 71.597656 14.902344 72.222656 15.246094 72.839844 15.589844 C 72.898438 15.648438 72.957031 15.648438 73.011719 15.703125 C 72.332031 17.132812 71.144531 17.929688 69.5625 17.988281 C 67.242188 18.101562 65.601562 16.730469 65.265625 14.390625 C 65.09375 13.191406 65.152344 11.9375 65.714844 10.851562 C 66.28125 9.707031 67.132812 9.023438 68.375 8.796875 C 69.109375 8.625 69.902344 8.679688 70.636719 8.851562 C 71.996094 9.25 72.675781 10.164062 73.066406 11.417969 Z M 73.066406 11.417969 "/>
<path style=" stroke:none;fill-rule:nonzero;fill:rgb(100%,100%,100%);fill-opacity:1;" d="M 63.792969 17.875 C 63.058594 17.875 62.324219 17.875 61.589844 17.875 C 61.589844 17.703125 61.589844 17.585938 61.589844 17.417969 C 61.589844 16.390625 61.589844 15.363281 61.589844 14.390625 C 61.589844 14.164062 61.589844 13.875 61.53125 13.648438 C 61.472656 13.191406 61.25 12.964844 60.796875 12.964844 C 60.34375 12.964844 60.117188 13.136719 60.003906 13.589844 C 59.949219 13.761719 59.949219 13.992188 59.949219 14.164062 C 59.949219 15.363281 59.949219 16.617188 59.949219 17.875 C 59.210938 17.875 58.476562 17.875 57.6875 17.875 C 57.6875 17.757812 57.6875 17.644531 57.6875 17.53125 C 57.6875 14.960938 57.6875 12.390625 57.6875 9.824219 C 57.6875 9.535156 57.742188 9.421875 58.023438 9.363281 C 58.648438 9.136719 59.269531 8.851562 59.949219 8.625 C 59.949219 9.652344 59.949219 10.621094 59.949219 11.589844 C 60.398438 11.417969 60.851562 11.25 61.304688 11.136719 C 62.605469 10.90625 63.511719 11.589844 63.738281 12.90625 C 63.792969 13.246094 63.792969 13.589844 63.792969 13.875 C 63.792969 15.074219 63.792969 16.332031 63.792969 17.53125 C 63.847656 17.644531 63.792969 17.757812 63.792969 17.875 Z M 63.792969 17.875 "/>
<path style=" stroke:none;fill-rule:nonzero;fill:rgb(100%,100%,100%);fill-opacity:1;" d="M 84.265625 11.191406 C 85.058594 11.191406 85.792969 11.191406 86.585938 11.191406 C 86.585938 13.417969 86.585938 15.648438 86.585938 17.929688 C 85.851562 17.929688 85.113281 17.929688 84.324219 17.929688 C 84.324219 17.816406 84.265625 17.703125 84.265625 17.585938 C 83.925781 17.703125 83.644531 17.929688 83.304688 17.988281 C 81.777344 18.386719 80.589844 17.585938 80.476562 15.988281 C 80.363281 14.621094 80.421875 13.191406 80.421875 11.820312 C 80.421875 11.589844 80.421875 11.417969 80.421875 11.191406 C 81.214844 11.191406 81.949219 11.191406 82.738281 11.191406 C 82.738281 11.308594 82.738281 11.417969 82.738281 11.589844 C 82.738281 12.675781 82.738281 13.761719 82.738281 14.847656 C 82.738281 15.074219 82.738281 15.304688 82.796875 15.53125 C 82.855469 15.988281 83.082031 16.160156 83.472656 16.160156 C 83.925781 16.160156 84.152344 15.988281 84.210938 15.53125 C 84.265625 15.304688 84.265625 15.019531 84.265625 14.792969 C 84.265625 13.535156 84.265625 12.390625 84.265625 11.191406 Z M 84.265625 11.191406 "/>
<path style=" stroke:none;fill-rule:nonzero;fill:rgb(100%,100%,100%);fill-opacity:1;" d="M 90.601562 17.929688 C 89.808594 17.929688 89.074219 17.929688 88.335938 17.929688 C 88.335938 15.703125 88.335938 13.417969 88.335938 11.191406 C 89.074219 11.191406 89.808594 11.191406 90.601562 11.191406 C 90.601562 11.308594 90.65625 11.417969 90.65625 11.480469 C 91.109375 11.308594 91.503906 11.136719 91.902344 11.019531 C 93.203125 10.792969 94.164062 11.480469 94.390625 12.792969 C 94.445312 12.964844 94.445312 13.136719 94.445312 13.304688 C 94.445312 14.847656 94.445312 16.332031 94.445312 17.875 C 93.710938 17.875 92.917969 17.875 92.128906 17.875 C 92.128906 17.757812 92.128906 17.644531 92.128906 17.476562 C 92.128906 16.390625 92.128906 15.246094 92.128906 14.164062 C 92.128906 13.992188 92.128906 13.761719 92.070312 13.589844 C 92.011719 13.136719 91.785156 12.964844 91.335938 12.964844 C 90.882812 12.964844 90.65625 13.136719 90.601562 13.589844 C 90.542969 13.761719 90.542969 13.992188 90.542969 14.164062 C 90.542969 15.246094 90.542969 16.390625 90.542969 17.476562 C 90.601562 17.644531 90.601562 17.757812 90.601562 17.929688 Z M 90.601562 17.929688 "/>
<path style=" stroke:none;fill-rule:nonzero;fill:rgb(100%,100%,100%);fill-opacity:1;" d="M 38.570312 11.078125 C 37.722656 11.078125 36.875 11.078125 36.082031 11.078125 C 36.082031 10.390625 36.082031 9.707031 36.082031 8.964844 C 36.195312 8.964844 36.308594 8.90625 36.476562 8.90625 C 38.683594 8.90625 40.945312 8.90625 43.152344 8.90625 C 43.488281 8.90625 43.546875 9.023438 43.546875 9.308594 C 43.546875 9.878906 43.546875 10.453125 43.546875 11.019531 C 42.8125 11.019531 42.132812 11.019531 41.453125 11.019531 C 41.058594 11.019531 41.003906 11.136719 41.003906 11.480469 C 41.003906 13.417969 41.003906 15.417969 41.003906 17.359375 C 41.003906 17.53125 41.003906 17.644531 41.003906 17.816406 C 40.210938 17.816406 39.421875 17.816406 38.570312 17.816406 C 38.570312 15.648438 38.570312 13.363281 38.570312 11.078125 Z M 38.570312 11.078125 "/>
<path style=" stroke:none;fill-rule:nonzero;fill:rgb(100%,100%,100%);fill-opacity:1;" d="M 49.375 15.191406 C 47.960938 15.191406 46.65625 15.191406 45.414062 15.191406 C 45.414062 15.875 45.808594 16.332031 46.429688 16.277344 C 46.941406 16.277344 47.390625 16.105469 47.898438 15.988281 C 48.015625 15.988281 48.125 15.875 48.296875 15.820312 C 48.578125 16.277344 48.863281 16.730469 49.148438 17.246094 C 48.636719 17.585938 48.125 17.816406 47.507812 17.875 C 46.882812 17.929688 46.203125 17.988281 45.582031 17.875 C 44.285156 17.644531 43.605469 16.675781 43.378906 15.417969 C 43.207031 14.675781 43.261719 13.875 43.488281 13.136719 C 43.886719 11.761719 45.019531 10.964844 46.429688 10.964844 C 47.898438 11.019531 48.863281 11.820312 49.148438 13.246094 C 49.316406 13.875 49.316406 14.503906 49.375 15.191406 Z M 45.414062 13.761719 C 46.035156 13.761719 46.65625 13.761719 47.28125 13.761719 C 47.222656 13.074219 46.882812 12.675781 46.320312 12.734375 C 45.753906 12.734375 45.46875 13.074219 45.414062 13.761719 Z M 45.414062 13.761719 "/>
<path style=" stroke:none;fill-rule:nonzero;fill:rgb(100%,100%,100%);fill-opacity:1;" d="M 101.628906 16.449219 C 100.894531 17.757812 99.761719 18.273438 98.234375 17.988281 C 96.9375 17.757812 96.085938 16.902344 95.859375 15.476562 C 95.691406 14.449219 95.691406 13.476562 96.199219 12.507812 C 96.820312 11.363281 97.839844 10.964844 99.082031 10.964844 C 100.214844 10.964844 101.003906 11.535156 101.574219 12.507812 C 101.0625 12.90625 100.554688 13.304688 99.988281 13.703125 C 99.875 13.535156 99.761719 13.363281 99.59375 13.191406 C 99.140625 12.621094 98.40625 12.734375 98.179688 13.417969 C 97.953125 14.105469 97.953125 14.792969 98.125 15.417969 C 98.347656 16.160156 99.082031 16.332031 99.59375 15.820312 C 99.761719 15.648438 99.933594 15.476562 100.101562 15.246094 C 100.667969 15.703125 101.175781 16.046875 101.628906 16.449219 Z M 101.628906 16.449219 "/>
<path style=" stroke:none;fill-rule:nonzero;fill:rgb(100%,100%,100%);fill-opacity:1;" d="M 56.214844 12.5625 C 55.707031 12.964844 55.199219 13.304688 54.6875 13.703125 C 54.574219 13.535156 54.464844 13.363281 54.347656 13.246094 C 54.121094 12.964844 53.839844 12.847656 53.503906 12.847656 C 53.160156 12.90625 52.992188 13.136719 52.878906 13.417969 C 52.652344 14.105469 52.652344 14.792969 52.878906 15.476562 C 53.105469 16.160156 53.785156 16.390625 54.347656 15.875 C 54.519531 15.703125 54.6875 15.476562 54.914062 15.304688 C 55.140625 15.476562 55.367188 15.648438 55.59375 15.820312 C 55.820312 15.988281 56.046875 16.160156 56.273438 16.332031 C 55.761719 17.476562 54.519531 18.101562 53.214844 17.929688 C 51.578125 17.703125 50.617188 16.675781 50.503906 14.960938 C 50.503906 14.390625 50.503906 13.820312 50.617188 13.246094 C 50.957031 11.535156 52.371094 10.851562 53.953125 10.964844 C 55.082031 11.136719 55.761719 11.648438 56.214844 12.5625 Z M 56.214844 12.5625 "/>
<path style=" stroke:none;fill-rule:nonzero;fill:rgb(100%,100%,100%);fill-opacity:1;" d="M 78.78125 13.648438 C 78.609375 13.535156 78.5 13.417969 78.328125 13.304688 C 77.539062 12.792969 76.800781 13.191406 76.800781 14.105469 C 76.800781 15.246094 76.800781 16.332031 76.800781 17.476562 C 76.800781 17.585938 76.800781 17.757812 76.800781 17.875 C 76.007812 17.875 75.273438 17.875 74.539062 17.875 C 74.539062 15.648438 74.539062 13.417969 74.539062 11.136719 C 75.273438 11.136719 76.007812 11.136719 76.800781 11.136719 C 76.800781 11.25 76.859375 11.363281 76.859375 11.480469 C 77.195312 11.308594 77.59375 11.078125 77.929688 11.019531 C 78.328125 10.964844 78.726562 11.078125 79.121094 11.136719 C 79.175781 11.136719 79.289062 11.308594 79.289062 11.417969 C 79.121094 12.164062 78.949219 12.90625 78.78125 13.648438 Z M 78.78125 13.648438 "/>
</g>
</svg>
